<svg xmlns="http://www.w3.org/2000/svg" viewBox="0 0 288.72 101.64"><defs><style>.cls-1{fill:#fce1a7;}.cls-2{fill:#f6d58c;}</style></defs><title>Zasób 1</title><g id="Warstwa_2" data-name="Warstwa 2"><g id="Warstwa_1-2" data-name="Warstwa 1"><path class="cls-1" d="M270.51,44.32c-2.26-2.88,8.7-7.54,8.64-11-.1-6.15-9-12.73-17.06-16.27-6.67-2.92-22.51-3-30.93-2.21-2.93.28-5.74.69-8.64,1.12l-6.18.25c-3.71.39-5.25-.48-4.65-2.62,1.3-.4,5-1.18,5.71-2.33,1.73-3-8.66-5.64-11.57-6.42C195,1.94,182.5,1.1,170.89.34,161.76-.26,150-.23,141.32,1.8c-1.06.24-3.24.61-3.62,1.47-1.39,3.05-4.87,5.14-9.26,5.65A34.59,34.59,0,0,1,123,8.73a2.76,2.76,0,0,1-.4-.06,17.58,17.58,0,0,1-8.14-3c-4.33-3.17-13.72-2.53-19.6-2a60.18,60.18,0,0,0-13.4,2.8C71.51,7.84,62.35,10.9,59.88,16.83,56.88,24,41.21,22.39,32.25,25,27.06,26.46,19,30.23,18.83,34.23c0,2,.25,2.89,2.41,4.39s7.94.47,10.15,2.16.22,2.86-1.75,4.39c-3.25,2.53-12,6.15-11.93,9.67.14,10.08,33.41-1.53,39.43-1.72,22.3-.69-9.64,15.6-11.11,18.24-2.68,4.82,3.91,6.29,10.39,7.16,3.17.41,6.65.36,9.87.65,6.91.59,6.94,2.89,8.49,6.43.74,1.69,3.42,2.47,5.75,3,8,2,19-2.6,25.7-4.62s13-4.12,20.65-4.38c6.67-.22,9.69,6.27,11.74,9.12,3.81,5.36,11.33,8.15,20.42,9.07a46.22,46.22,0,0,0,23.86-4.1c4.48-2,8.39-4.37,12.82-6.37,7.62-3.46,16.32.84,23.88,1.59,9.81,1,21.43-.25,30-3.37,7.53-2.72,7.7-7.93,9.31-12.66,2.6-7.55,14.42-7.55,21.56-12.31,4.28-2.84,4.18-6.37,1.2-9.61a21.45,21.45,0,0,0-5.56-4.08C275,46.26,271.15,45.11,270.51,44.32Z"/><path class="cls-2" d="M12.12,47.3A27.78,27.78,0,0,0,9,47.36a28.94,28.94,0,0,0-6.79,1c-2,.11-3.42,2.57-.54,2.42,2.29-.12,4.49-.41,6.82-.49,1.84-.06,4,.43,5.36-.58C15.33,48.57,13.87,47.4,12.12,47.3Z"/><path class="cls-2" d="M27.38,44.27a26.46,26.46,0,0,0-2.89-.83,29.31,29.31,0,0,0-6.78-1c-1.83-.43-4.92,1.35-2.24,2,2.13.53,4.31.89,6.42,1.46,1.7.46,3.25,1.49,5.2,1C29.31,46.31,28.88,44.86,27.38,44.27Z"/><path class="cls-2" d="M13.12,55.91a22.73,22.73,0,0,0-2.45-.4,25.28,25.28,0,0,0-5.5-.19c-1.54-.17-3.53,1.5-1.29,1.77,1.79.23,3.57.3,5.35.57,1.42.2,2.86.86,4.29.29S14.41,56.22,13.12,55.91Z"/><path class="cls-2" d="M29.44,50.65A20.84,20.84,0,0,0,27,51a20.69,20.69,0,0,0-5,1.3c-1.5.26-2.09,2.29.12,1.93,1.75-.29,3.4-.7,5.18-1,1.42-.2,3.17,0,4-.91S30.84,50.58,29.44,50.65Z"/><path class="cls-2" d="M43.72,57.22a28.44,28.44,0,0,0-3.2.07,28.28,28.28,0,0,0-6.79,1c-2,.11-3.43,2.58-.54,2.42,2.28-.12,4.5-.41,6.81-.48,1.85-.06,4,.42,5.37-.58C47,58.5,45.49,57.32,43.72,57.22Z"/><path class="cls-2" d="M59,54.21A27.06,27.06,0,0,0,56,53.36a28.7,28.7,0,0,0-6.77-1c-1.81-.44-4.9,1.34-2.24,2,2.14.52,4.33.88,6.44,1.46,1.68.46,3.23,1.48,5.2,1C61,56.23,60.48,54.79,59,54.21Z"/><path class="cls-2" d="M44.73,65.84a17,17,0,0,0-2.46-.39,23.54,23.54,0,0,0-5.5-.2c-1.52-.18-3.51,1.49-1.27,1.77,1.79.22,3.55.31,5.34.57,1.41.2,2.86.86,4.28.29C46.69,67.23,46,66.15,44.73,65.84Z"/><path class="cls-2" d="M61.05,60.57a23.22,23.22,0,0,0-2.49.32,20.09,20.09,0,0,0-5,1.34c-1.49.26-2.09,2.28.11,1.92,1.75-.28,3.4-.69,5.18-1,1.42-.2,3.19,0,4-.91S62.44,60.5,61.05,60.57Z"/><path class="cls-2" d="M36.5,33.26a26.63,26.63,0,0,0-3.22.07,28.28,28.28,0,0,0-6.79,1c-2,.11-3.42,2.58-.54,2.42,2.29-.12,4.5-.41,6.82-.48,1.83-.06,4,.42,5.36-.58C39.7,34.54,38.25,33.35,36.5,33.26Z"/><path class="cls-2" d="M66,34.59a22.47,22.47,0,0,0-2.91-.83,28,28,0,0,0-6.76-1c-1.84-.44-4.92,1.35-2.24,2,2.12.52,4.31.88,6.42,1.46,1.68.46,3.25,1.48,5.22,1C68,36.61,67.52,35.17,66,34.59Z"/><path class="cls-2" d="M52,43.87c-.81-.18-1.64-.28-2.46-.38a25.38,25.38,0,0,0-5.51-.2c-1.53-.16-3.52,1.49-1.28,1.78,1.78.23,3.57.3,5.35.57,1.42.2,2.85.86,4.28.28S53.26,44.2,52,43.87Z"/><path class="cls-2" d="M79.46,38.62a22.67,22.67,0,0,0-2.46.32,21.42,21.42,0,0,0-5,1.33c-1.5.27-2.08,2.29.12,1.94,1.75-.29,3.4-.7,5.19-1,1.41-.2,3.17,0,4-.91S80.86,38.56,79.46,38.62Z"/><path class="cls-2" d="M68.13,47.9a14.58,14.58,0,0,0-2.09,0,19.66,19.66,0,0,0-4.45.63c-1.28.08-2.24,1.7-.35,1.59,1.5-.07,2.94-.27,4.46-.31,1.2,0,2.6.27,3.5-.39S69.29,48,68.13,47.9Z"/><path class="cls-2" d="M88.34,47a13.81,13.81,0,0,0-1.9-.56A18.9,18.9,0,0,0,82,45.78c-1.19-.29-3.21.88-1.48,1.31,1.4.36,2.83.58,4.21,1,1.12.31,2.12,1,3.42.64S89.32,47.38,88.34,47Z"/><path class="cls-2" d="M79,54.59c-.51-.12-1-.18-1.6-.26a16.58,16.58,0,0,0-3.59-.12c-1-.11-2.31,1-.82,1.16,1.14.14,2.3.2,3.47.38.94.13,1.88.55,2.81.18S79.87,54.8,79,54.59Z"/><path class="cls-2" d="M89.69,51.17a11,11,0,0,0-1.62.2,12.67,12.67,0,0,0-3.3.87c-1,.16-1.36,1.49.07,1.26,1.14-.19,2.22-.46,3.4-.62.93-.14,2.07,0,2.63-.6S90.59,51.11,89.69,51.17Z"/><path class="cls-2" d="M52.7,76.5a26.75,26.75,0,0,0-3.23.07,29,29,0,0,0-6.8,1c-2,.12-3.42,2.58-.53,2.43,2.29-.12,4.51-.41,6.82-.48,1.85-.06,4,.41,5.37-.6C55.88,77.77,54.45,76.61,52.7,76.5Z"/><path class="cls-2" d="M68,73.49a22.88,22.88,0,0,0-2.9-.85,28.7,28.7,0,0,0-6.77-1c-1.81-.44-4.9,1.34-2.23,2,2.13.52,4.31.89,6.43,1.46,1.68.46,3.23,1.48,5.2,1C69.88,75.51,69.44,74.07,68,73.49Z"/><path class="cls-2" d="M53.69,85.11a18.5,18.5,0,0,0-2.46-.38,23.09,23.09,0,0,0-5.51-.2c-1.51-.18-3.5,1.49-1.28,1.77,1.79.22,3.58.3,5.36.56,1.42.2,2.86.86,4.28.29S55,85.43,53.69,85.11Z"/><path class="cls-2" d="M70,79.85a23.22,23.22,0,0,0-2.49.32,20.63,20.63,0,0,0-5,1.33c-1.5.26-2.11,2.29.1,1.93,1.75-.28,3.4-.7,5.19-1,1.41-.21,3.16,0,4-.92S71.4,79.78,70,79.85Z"/><path class="cls-2" d="M84.3,86.43a28.84,28.84,0,0,0-3.22.06,28.94,28.94,0,0,0-6.79,1c-2,.12-3.42,2.58-.54,2.42,2.29-.11,4.5-.41,6.83-.48,1.83-.06,4,.42,5.37-.58C87.5,87.7,86.05,86.53,84.3,86.43Z"/><path class="cls-2" d="M99.56,83.41a21,21,0,0,0-2.91-.83,28,28,0,0,0-6.76-1c-1.84-.44-4.92,1.35-2.26,2,2.14.53,4.33.89,6.44,1.46,1.7.46,3.25,1.48,5.22,1C101.48,85.43,101.06,84,99.56,83.41Z"/><path class="cls-2" d="M85.29,95q-1.22-.25-2.46-.39a24,24,0,0,0-5.49-.19c-1.53-.17-3.5,1.49-1.28,1.78,1.79.22,3.56.3,5.34.56,1.43.2,2.86.85,4.3.29S86.59,95.35,85.29,95Z"/><path class="cls-2" d="M101.61,89.78a20.6,20.6,0,0,0-2.47.32,20.13,20.13,0,0,0-5,1.33c-1.5.26-2.09,2.28.11,1.93,1.76-.3,3.4-.7,5.18-1,1.43-.2,3.18,0,4-.91S103,89.71,101.61,89.78Z"/><path class="cls-2" d="M77.05,62.47a24.57,24.57,0,0,0-3.21.06,28.94,28.94,0,0,0-6.79,1c-2,.11-3.42,2.58-.54,2.43,2.29-.12,4.52-.42,6.82-.49,1.86-.06,4,.42,5.38-.59S78.83,62.57,77.05,62.47Z"/><path class="cls-2" d="M106.6,63.79a21.12,21.12,0,0,0-2.92-.83,27.54,27.54,0,0,0-6.75-1c-1.82-.43-4.9,1.34-2.24,2,2.12.53,4.31.89,6.44,1.46,1.68.46,3.23,1.48,5.2,1C108.52,65.82,108.1,64.38,106.6,63.79Z"/><path class="cls-2" d="M92.54,73.09a17,17,0,0,0-2.46-.39,24,24,0,0,0-5.49-.19c-1.54-.18-3.53,1.48-1.29,1.76,1.79.23,3.56.3,5.34.56,1.42.21,2.87.87,4.28.3C94.51,74.49,93.83,73.4,92.54,73.09Z"/><path class="cls-2" d="M120,67.82a23,23,0,0,0-2.48.32,21.23,21.23,0,0,0-5,1.33c-1.5.26-2.09,2.3.12,1.94,1.73-.29,3.39-.71,5.17-1,1.42-.2,3.18,0,4-.91S121.42,67.76,120,67.82Z"/><path class="cls-2" d="M108.7,77.1a18.39,18.39,0,0,0-2.1,0,19.11,19.11,0,0,0-4.45.63c-1.28.09-2.22,1.69-.33,1.6,1.48-.08,2.94-.27,4.44-.32,1.21,0,2.61.27,3.51-.39S109.85,77.17,108.7,77.1Z"/><path class="cls-2" d="M128.9,76.2a12.27,12.27,0,0,0-1.88-.55,18.4,18.4,0,0,0-4.43-.67c-1.2-.29-3.21.88-1.47,1.32,1.4.35,2.83.58,4.21,1,1.09.31,2.11,1,3.4.64S129.9,76.57,128.9,76.2Z"/><path class="cls-2" d="M119.59,83.8a14.41,14.41,0,0,0-1.6-.26,16.77,16.77,0,0,0-3.61-.13c-1-.11-2.29,1-.82,1.16,1.14.15,2.32.2,3.48.38.93.13,1.87.56,2.8.18S120.43,84,119.59,83.8Z"/><path class="cls-2" d="M130.25,80.35a15,15,0,0,0-1.62.22,12.67,12.67,0,0,0-3.3.87c-1,.17-1.37,1.49.09,1.26,1.12-.18,2.2-.46,3.38-.63.93-.13,2.07,0,2.64-.59S131.16,80.31,130.25,80.35Z"/><path class="cls-2" d="M73.75,15.35c-1.07,0-2.14,0-3.21.07a29.47,29.47,0,0,0-6.79,1c-2,.11-3.42,2.58-.54,2.43,2.29-.11,4.5-.42,6.82-.49,1.84-.05,4,.42,5.35-.59C77,16.64,75.52,15.46,73.75,15.35Z"/><path class="cls-2" d="M89,12.34a24.22,24.22,0,0,0-2.91-.84,29.06,29.06,0,0,0-6.75-1c-1.84-.44-4.92,1.35-2.24,2,2.12.53,4.31.88,6.41,1.46,1.71.46,3.26,1.48,5.23,1C91,14.36,90.51,12.93,89,12.34Z"/><path class="cls-2" d="M74.77,24a21,21,0,0,0-2.48-.39,24,24,0,0,0-5.49-.2c-1.54-.18-3.52,1.49-1.29,1.77,1.79.23,3.58.31,5.35.57,1.43.21,2.86.86,4.29.29S76,24.28,74.77,24Z"/><path class="cls-2" d="M91.07,18.71a20.77,20.77,0,0,0-2.48.32,19.27,19.27,0,0,0-5,1.34c-1.5.25-2.09,2.28.12,1.91,1.75-.28,3.4-.7,5.18-.94,1.42-.21,3.17,0,4-.91S92.47,18.64,91.07,18.71Z"/><path class="cls-2" d="M105.37,25.28a28.84,28.84,0,0,0-3.22.07,29.48,29.48,0,0,0-6.8,1c-2,.13-3.42,2.58-.54,2.43,2.31-.12,4.51-.41,6.82-.48,1.86-.07,4,.41,5.37-.59C108.55,26.57,107.12,25.39,105.37,25.28Z"/><path class="cls-2" d="M120.63,22.26a26.17,26.17,0,0,0-2.91-.83,29.77,29.77,0,0,0-6.76-1c-1.84-.44-4.91,1.34-2.26,2,2.14.54,4.32.89,6.44,1.47,1.69.46,3.23,1.49,5.21,1C122.55,24.3,122.11,22.85,120.63,22.26Z"/><path class="cls-2" d="M106.37,33.89a18.5,18.5,0,0,0-2.46-.38,23.19,23.19,0,0,0-5.52-.19c-1.51-.18-3.5,1.48-1.26,1.76,1.77.22,3.56.3,5.34.56,1.42.21,2.87.87,4.28.3C108.32,35.3,107.66,34.22,106.37,33.89Z"/><path class="cls-2" d="M122.68,28.63a22.86,22.86,0,0,0-2.47.32,20.51,20.51,0,0,0-5,1.33c-1.5.26-2.09,2.3.09,1.93,1.76-.28,3.41-.7,5.2-.95,1.41-.2,3.18,0,4-.91S124.07,28.57,122.68,28.63Z"/><path class="cls-2" d="M98.13,1.32A27.91,27.91,0,0,0,95,1.39a29.56,29.56,0,0,0-6.81,1c-1.94.13-3.4,2.58-.52,2.43,2.29-.11,4.5-.41,6.83-.49,1.83-.06,4,.42,5.35-.58C101.33,2.6,99.88,1.42,98.13,1.32Z"/><path class="cls-2" d="M127.67,2.64a26.17,26.17,0,0,0-2.91-.83,28.45,28.45,0,0,0-6.8-1c-1.83-.45-4.91,1.33-2.24,2,2.13.53,4.32.89,6.42,1.47,1.7.46,3.25,1.47,5.22,1C129.59,4.68,129.16,3.23,127.67,2.64Z"/><path class="cls-2" d="M113.59,11.94a20,20,0,0,0-2.44-.39,24.76,24.76,0,0,0-5.51-.19c-1.53-.18-3.5,1.49-1.26,1.77,1.77.22,3.55.3,5.32.57,1.43.2,2.86.86,4.29.29S114.9,12.26,113.59,11.94Z"/><path class="cls-2" d="M141.1,6.68a17.37,17.37,0,0,0-2.48.33,20.05,20.05,0,0,0-5,1.32c-1.5.26-2.09,2.29.12,1.93,1.75-.28,3.4-.7,5.18-.95,1.42-.2,3.17,0,4-.92S142.49,6.61,141.1,6.68Z"/><path class="cls-2" d="M129.76,16a18.22,18.22,0,0,0-2.09,0,19.05,19.05,0,0,0-4.44.65c-1.28.08-2.23,1.68-.36,1.58,1.5-.08,3-.27,4.47-.32,1.19,0,2.59.28,3.5-.38S131,16,129.76,16Z"/><path class="cls-2" d="M150,15.05a15.79,15.79,0,0,0-1.9-.54,17.84,17.84,0,0,0-4.42-.67c-1.19-.29-3.21.88-1.46,1.31,1.38.35,2.81.58,4.2,1,1.11.3,2.12,1,3.41.65C151.24,16.38,151,15.43,150,15.05Z"/><path class="cls-2" d="M140.66,22.66A12.43,12.43,0,0,0,139,22.4a16,16,0,0,0-3.59-.13c-1-.11-2.3,1-.84,1.16,1.16.15,2.33.2,3.51.37.92.13,1.86.56,2.79.2S141.5,22.86,140.66,22.66Z"/><path class="cls-2" d="M151.32,19.22a11,11,0,0,0-1.62.21,13.05,13.05,0,0,0-3.3.86c-1,.16-1.36,1.51.07,1.26,1.14-.19,2.22-.45,3.4-.62.93-.12,2.07,0,2.63-.58S152.23,19.16,151.32,19.22Z"/><path class="cls-2" d="M125.21,42.68a24.58,24.58,0,0,0-3.21.07,28.28,28.28,0,0,0-6.79,1c-2,.13-3.42,2.58-.54,2.43,2.29-.12,4.51-.41,6.82-.49,1.85-.06,4,.42,5.37-.58S127,42.78,125.21,42.68Z"/><path class="cls-2" d="M140.47,39.66a22.79,22.79,0,0,0-2.9-.83,28.62,28.62,0,0,0-6.76-1c-1.84-.43-4.92,1.35-2.24,2,2.12.53,4.31.89,6.43,1.47,1.68.46,3.23,1.47,5.2,1C142.39,41.7,142,40.25,140.47,39.66Z"/><path class="cls-2" d="M126.21,51.29a16.89,16.89,0,0,0-2.45-.39,24.18,24.18,0,0,0-5.51-.19c-1.53-.17-3.5,1.48-1.28,1.77,1.79.22,3.58.3,5.36.56,1.42.21,2.86.87,4.26.29C128.18,52.69,127.5,51.61,126.21,51.29Z"/><path class="cls-2" d="M142.54,46A29.21,29.21,0,0,0,135,47.68c-1.48.26-2.09,2.28.12,1.93,1.75-.28,3.4-.7,5.19-1,1.41-.19,3.16,0,4-.9S144,46,142.54,46Z"/><path class="cls-2" d="M156.81,52.61a24.39,24.39,0,0,0-3.2.07,28.78,28.78,0,0,0-6.78,1c-2,.12-3.43,2.57-.55,2.43,2.28-.12,4.5-.41,6.82-.49,1.84-.07,4,.42,5.36-.59C160,53.88,158.6,52.7,156.81,52.61Z"/><path class="cls-2" d="M172.09,49.59a24.37,24.37,0,0,0-2.92-.84,28.53,28.53,0,0,0-6.75-1c-1.84-.44-4.92,1.35-2.26,2,2.14.54,4.33.89,6.44,1.47,1.7.47,3.24,1.48,5.22,1C174,51.61,173.57,50.17,172.09,49.59Z"/><path class="cls-2" d="M157.82,61.21a18.5,18.5,0,0,0-2.46-.38,24,24,0,0,0-5.49-.2c-1.53-.18-3.52,1.49-1.28,1.77,1.79.22,3.56.3,5.34.57,1.41.2,2.86.85,4.28.29C159.79,62.62,159.12,61.53,157.82,61.21Z"/><path class="cls-2" d="M174.14,56a31.3,31.3,0,0,0-7.53,1.66c-1.5.25-2.08,2.28.11,1.94,1.75-.3,3.4-.72,5.19-1,1.41-.2,3.18,0,4-.91S175.52,55.89,174.14,56Z"/><path class="cls-2" d="M149.58,28.65a24.57,24.57,0,0,0-3.21.06,30,30,0,0,0-6.79,1c-2,.13-3.42,2.58-.54,2.43,2.29-.11,4.52-.4,6.82-.49,1.84-.06,4,.42,5.36-.58C152.79,29.92,151.34,28.74,149.58,28.65Z"/><path class="cls-2" d="M179.13,30a21,21,0,0,0-2.91-.84,29.77,29.77,0,0,0-6.76-1c-1.84-.44-4.92,1.35-2.24,2,2.12.53,4.31.89,6.42,1.48,1.68.44,3.23,1.47,5.22,1C181.05,32,180.63,30.55,179.13,30Z"/><path class="cls-2" d="M165.06,39.27a16.89,16.89,0,0,0-2.45-.39,23.62,23.62,0,0,0-5.51-.2c-1.52-.18-3.51,1.5-1.28,1.77,1.78.22,3.57.31,5.35.57,1.42.2,2.87.86,4.28.29C167,40.67,166.36,39.58,165.06,39.27Z"/><path class="cls-2" d="M192.57,34a31.31,31.31,0,0,0-7.52,1.65c-1.51.27-2.09,2.29.09,1.93,1.76-.28,3.4-.69,5.19-.94,1.42-.21,3.18,0,4-.91S194,33.93,192.57,34Z"/><path class="cls-2" d="M181.24,43.27a14.88,14.88,0,0,0-2.11.06,18.59,18.59,0,0,0-4.45.63c-1.27.08-2.22,1.68-.35,1.59,1.5-.07,2.95-.27,4.46-.32,1.22,0,2.62.27,3.51-.38S182.38,43.34,181.24,43.27Z"/><path class="cls-2" d="M201.43,42.37c-.59-.22-1.25-.38-1.88-.55a19.52,19.52,0,0,0-4.43-.66c-1.2-.29-3.22.88-1.47,1.32,1.4.34,2.81.58,4.19,1,1.11.29,2.13,1,3.42.62S202.41,42.75,201.43,42.37Z"/><path class="cls-2" d="M192.12,50c-.52-.12-1.07-.18-1.62-.25A15,15,0,0,0,187,49.6c-1-.12-2.29,1-.84,1.15,1.18.15,2.34.19,3.5.37.93.14,1.87.57,2.8.19S193,50.18,192.12,50Z"/><path class="cls-2" d="M202.78,46.54a11.23,11.23,0,0,0-1.62.21,13.05,13.05,0,0,0-3.3.86c-1,.18-1.36,1.49.07,1.27,1.15-.19,2.22-.46,3.38-.63.94-.13,2.09,0,2.65-.59S203.69,46.49,202.78,46.54Z"/><path class="cls-2" d="M171.28,16.44a28.05,28.05,0,0,0-2.9,0,25.68,25.68,0,0,0-6.1.89c-1.76.1-3.08,2.32-.48,2.18,2-.1,4-.37,6.13-.44,1.67-.05,3.57.38,4.83-.53S172.86,16.53,171.28,16.44Z"/><path class="cls-2" d="M185,13.73A19.47,19.47,0,0,0,182.4,13a25.48,25.48,0,0,0-6.08-.92c-1.65-.4-4.43,1.21-2,1.8,1.91.48,3.88.81,5.78,1.32,1.52.41,2.92,1.33,4.68.87C186.74,15.55,186.36,14.25,185,13.73Z"/><path class="cls-2" d="M172.17,24.18a18.3,18.3,0,0,0-2.2-.35,21.44,21.44,0,0,0-5-.17c-1.36-.16-3.14,1.34-1.14,1.59,1.6.2,3.2.27,4.82.51,1.26.18,2.56.77,3.83.26S173.34,24.47,172.17,24.18Z"/><path class="cls-2" d="M186.86,19.46a16.93,16.93,0,0,0-2.24.28,17.72,17.72,0,0,0-4.53,1.2c-1.35.23-1.89,2,.1,1.73,1.57-.25,3.05-.62,4.65-.86,1.28-.19,2.86,0,3.64-.81S188.11,19.38,186.86,19.46Z"/><path class="cls-2" d="M199.71,25.38a23.22,23.22,0,0,0-2.89,0,26.91,26.91,0,0,0-6.12.88c-1.75.11-3.08,2.32-.49,2.18,2.07-.1,4.06-.36,6.15-.42,1.65-.06,3.57.37,4.82-.54C202.58,26.51,201.3,25.46,199.71,25.38Z"/><path class="cls-2" d="M213.42,22.65a23.61,23.61,0,0,0-2.61-.76,26,26,0,0,0-6.08-.91c-1.65-.4-4.41,1.21-2,1.82,1.92.48,3.89.79,5.78,1.31,1.53.41,2.93,1.34,4.7.88C215.16,24.48,214.77,23.18,213.42,22.65Z"/><path class="cls-2" d="M200.6,33.11a16.25,16.25,0,0,0-2.2-.35,21.58,21.58,0,0,0-5-.17c-1.38-.16-3.17,1.33-1.15,1.58,1.6.21,3.2.28,4.82.51,1.26.19,2.56.79,3.84.27S201.78,33.39,200.6,33.11Z"/><path class="cls-2" d="M215.28,28.38a20.9,20.9,0,0,0-2.23.28,19.33,19.33,0,0,0-4.55,1.2c-1.33.23-1.86,2.06.11,1.75,1.58-.26,3.06-.64,4.66-.87,1.28-.18,2.87,0,3.63-.82S216.54,28.32,215.28,28.38Z"/><path class="cls-2" d="M193.19,3.81a22.88,22.88,0,0,0-2.87.07,25.83,25.83,0,0,0-6.12.87c-1.77.11-3.08,2.32-.49,2.18,2.07-.1,4.06-.36,6.13-.44,1.67,0,3.59.38,4.84-.52S194.78,3.9,193.19,3.81Z"/><path class="cls-2" d="M219.78,5a23.73,23.73,0,0,0-2.62-.75,26.53,26.53,0,0,0-6.07-.92c-1.66-.38-4.44,1.21-2,1.82,1.9.47,3.87.79,5.78,1.31,1.51.42,2.91,1.34,4.68.88C221.51,6.83,221.12,5.52,219.78,5Z"/><path class="cls-2" d="M207.11,13.36A18.44,18.44,0,0,0,204.9,13a21.39,21.39,0,0,0-4.93-.18c-1.39-.16-3.17,1.33-1.15,1.59,1.6.2,3.2.28,4.8.51,1.28.19,2.58.78,3.84.26C208.88,14.62,208.29,13.65,207.11,13.36Z"/><path class="cls-2" d="M231.85,8.64a18.45,18.45,0,0,0-2.22.28,18,18,0,0,0-4.55,1.21c-1.35.23-1.87,2,.1,1.73,1.59-.26,3.07-.64,4.67-.87,1.28-.17,2.86,0,3.62-.81S233.09,8.57,231.85,8.64Z"/><path class="cls-2" d="M221.66,17a14.76,14.76,0,0,0-1.88.05,15.9,15.9,0,0,0-4,.57c-1.16.07-2,1.51-.32,1.43,1.35-.08,2.65-.24,4-.28,1.08,0,2.34.24,3.15-.36S222.69,17,221.66,17Z"/><path class="cls-2" d="M239.84,16.16a14.82,14.82,0,0,0-1.73-.49,16.9,16.9,0,0,0-4-.6c-1.08-.25-2.9.79-1.33,1.18,1.26.32,2.54.52,3.77.87,1,.27,1.9.87,3.08.56S240.71,16.5,239.84,16.16Z"/><path class="cls-2" d="M231.45,23a11.8,11.8,0,0,0-1.45-.22,12.48,12.48,0,0,0-3.23-.12c-.9-.1-2.08.88-.75,1,1,.13,2.09.17,3.14.33a4.91,4.91,0,0,0,2.52.18C232.61,23.83,232.21,23.18,231.45,23Z"/><path class="cls-2" d="M241.05,19.91a17.78,17.78,0,0,0-4.43,1c-.88.15-1.23,1.34.06,1.13,1-.16,2-.4,3.06-.56.84-.11,1.86,0,2.37-.53S241.86,19.86,241.05,19.91Z"/><path class="cls-2" d="M211.59,56a23.08,23.08,0,0,0-2.88.06,26.35,26.35,0,0,0-6.12.87c-1.76.11-3.06,2.32-.49,2.18,2.06-.1,4.07-.36,6.15-.42,1.66-.07,3.57.36,4.82-.54S213.19,56,211.59,56Z"/><path class="cls-2" d="M225.31,53.23a19.47,19.47,0,0,0-2.61-.75,25.48,25.48,0,0,0-6.08-.92c-1.65-.39-4.41,1.21-2,1.81,1.92.49,3.9.8,5.78,1.32,1.53.41,2.92,1.34,4.69.87C227.05,55.05,226.66,53.75,225.31,53.23Z"/><path class="cls-2" d="M212.5,63.69a16.71,16.71,0,0,0-2.23-.36,23.21,23.21,0,0,0-4.93-.17c-1.38-.15-3.17,1.34-1.15,1.6,1.61.2,3.2.26,4.81.5,1.27.19,2.57.77,3.85.26S213.66,64,212.5,63.69Z"/><path class="cls-2" d="M227.17,59a16.8,16.8,0,0,0-2.23.29,18.31,18.31,0,0,0-4.54,1.19c-1.35.24-1.89,2.06.1,1.74,1.57-.26,3.06-.63,4.67-.86,1.27-.18,2.84,0,3.61-.82S228.42,58.9,227.17,59Z"/><path class="cls-2" d="M240,64.88a25.17,25.17,0,0,0-2.88.05,25.84,25.84,0,0,0-6.12.88c-1.76.11-3.08,2.31-.48,2.19,2-.11,4-.38,6.13-.44,1.67-.07,3.59.37,4.83-.54C242.9,66,241.6,65,240,64.88Z"/><path class="cls-2" d="M253.75,62.16a19.47,19.47,0,0,0-2.61-.75,25.48,25.48,0,0,0-6.08-.92c-1.66-.4-4.42,1.2-2,1.81,1.93.48,3.88.79,5.78,1.31,1.52.42,2.92,1.34,4.7.88C255.48,64,255.09,62.69,253.75,62.16Z"/><path class="cls-2" d="M241,72.6c-.72-.15-1.45-.26-2.19-.34a21.58,21.58,0,0,0-5-.17c-1.38-.16-3.17,1.35-1.14,1.59,1.58.2,3.2.28,4.8.5,1.28.2,2.57.79,3.84.28S242.09,72.9,241,72.6Z"/><path class="cls-2" d="M255.6,67.88a16.45,16.45,0,0,0-2.22.3,18.54,18.54,0,0,0-4.57,1.19c-1.33.23-1.87,2,.12,1.74,1.57-.26,3-.64,4.67-.86,1.26-.19,2.86,0,3.62-.81S256.85,67.82,255.6,67.88Z"/><path class="cls-2" d="M233.52,43.33a23.39,23.39,0,0,0-2.9.05,26.34,26.34,0,0,0-6.11.87c-1.76.12-3.07,2.32-.49,2.19,2.07-.11,4.06-.37,6.13-.43,1.67-.06,3.59.37,4.85-.53S235.09,43.41,233.52,43.33Z"/><path class="cls-2" d="M260.08,44.51a18.07,18.07,0,0,0-2.61-.74,25,25,0,0,0-6.08-.92c-1.65-.4-4.41,1.2-2,1.8,1.92.48,3.89.8,5.78,1.32,1.53.41,2.91,1.33,4.69.88C261.82,46.33,261.43,45,260.08,44.51Z"/><path class="cls-2" d="M247.43,52.88a16.27,16.27,0,0,0-2.2-.36,20.91,20.91,0,0,0-5-.17c-1.39-.17-3.17,1.34-1.15,1.59,1.6.2,3.21.27,4.8.51,1.28.19,2.58.77,3.86.26S248.59,53.15,247.43,52.88Z"/><path class="cls-2" d="M272.17,48.15a15,15,0,0,0-2.22.28,17.91,17.91,0,0,0-4.54,1.2c-1.35.23-1.89,2.06.08,1.73,1.58-.25,3.06-.62,4.66-.85,1.28-.18,2.87,0,3.64-.83S273.42,48.07,272.17,48.15Z"/><path class="cls-2" d="M262,56.48a14.9,14.9,0,0,0-1.89,0,16.94,16.94,0,0,0-4,.57c-1.15.08-2,1.53-.32,1.43,1.35-.06,2.65-.24,4-.28,1.09,0,2.34.25,3.15-.35S263,56.55,262,56.48Z"/><path class="cls-2" d="M280.14,55.67a11,11,0,0,0-1.7-.49,16.9,16.9,0,0,0-4-.6c-1.08-.26-2.9.79-1.33,1.18,1.26.32,2.54.53,3.78.87,1,.26,1.91.86,3.07.57S281,56,280.14,55.67Z"/><path class="cls-2" d="M271.75,62.51a9.77,9.77,0,0,0-1.42-.23,14.63,14.63,0,0,0-3.24-.12c-.91-.1-2.07.88-.76,1.05,1,.12,2.09.17,3.15.32a4.76,4.76,0,0,0,2.51.17C273,63.33,272.53,62.7,271.75,62.51Z"/><path class="cls-2" d="M281.37,59.41a14.21,14.21,0,0,0-1.46.19,12,12,0,0,0-3,.79c-.87.15-1.21,1.34.08,1.14,1-.18,2-.42,3.06-.57.82-.12,1.85,0,2.36-.53S282.18,59.37,281.37,59.41Z"/><path class="cls-2" d="M160.35,82.93a23.38,23.38,0,0,0-2.9,0,26.9,26.9,0,0,0-6.11.88c-1.77.11-3.09,2.33-.49,2.19,2.07-.11,4.06-.38,6.13-.44,1.67,0,3.59.38,4.83-.53C163.22,84.08,162,83,160.35,82.93Z"/><path class="cls-2" d="M174.06,80.21a24.21,24.21,0,0,0-2.61-.75,26.53,26.53,0,0,0-6.08-.92c-1.65-.39-4.42,1.21-2,1.81,1.92.48,3.87.81,5.78,1.32,1.53.41,2.91,1.33,4.7.87C175.79,82,175.41,80.74,174.06,80.21Z"/><path class="cls-2" d="M161.25,90.68a20.76,20.76,0,0,0-2.21-.36,21.44,21.44,0,0,0-5-.17C152.7,90,151,91.49,153,91.74c1.6.2,3.2.27,4.8.51,1.28.18,2.58.76,3.85.26S162.4,91,161.25,90.68Z"/><path class="cls-2" d="M176,85.93a13.63,13.63,0,0,0-2.22.3,18,18,0,0,0-4.55,1.2c-1.35.23-1.87,2,.1,1.73,1.57-.26,3.07-.62,4.67-.85,1.28-.19,2.84,0,3.62-.83S177.16,85.87,176,85.93Z"/><path class="cls-2" d="M188.76,91.86a23.08,23.08,0,0,0-2.88.06,25.74,25.74,0,0,0-6.11.87c-1.77.11-3.09,2.32-.49,2.18,2.06-.1,4.06-.36,6.15-.42,1.65-.06,3.55.36,4.82-.53S190.35,92,188.76,91.86Z"/><path class="cls-2" d="M202.49,89.14a23.57,23.57,0,0,0-2.61-.75,25.48,25.48,0,0,0-6.08-.92c-1.65-.39-4.43,1.21-2,1.8,1.9.49,3.87.81,5.78,1.33,1.52.41,2.91,1.33,4.68.87C204.23,91,203.84,89.66,202.49,89.14Z"/><path class="cls-2" d="M189.67,99.6a18.31,18.31,0,0,0-2.22-.35,20.93,20.93,0,0,0-4.94-.17c-1.38-.16-3.16,1.33-1.16,1.58,1.61.21,3.22.27,4.82.51,1.26.19,2.58.78,3.84.26C191.44,100.86,190.82,99.88,189.67,99.6Z"/><path class="cls-2" d="M204.35,94.86a20.92,20.92,0,0,0-2.23.29,18.78,18.78,0,0,0-4.54,1.2c-1.35.23-1.89,2.06.09,1.74,1.57-.26,3.07-.63,4.67-.86,1.28-.17,2.84,0,3.62-.83S205.59,94.81,204.35,94.86Z"/><path class="cls-2" d="M182.26,70.3a23.24,23.24,0,0,0-2.89.06,26.91,26.91,0,0,0-6.12.88c-1.75.11-3.07,2.32-.47,2.19,2.06-.11,4.05-.37,6.13-.45,1.65,0,3.57.38,4.81-.52C185.13,71.45,183.85,70.39,182.26,70.3Z"/><path class="cls-2" d="M208.83,71.49a23.73,23.73,0,0,0-2.62-.75,25.48,25.48,0,0,0-6.08-.92c-1.65-.38-4.41,1.21-2,1.82,1.92.47,3.89.79,5.78,1.32,1.52.4,2.91,1.33,4.7.87C210.56,73.32,210.17,72,208.83,71.49Z"/><path class="cls-2" d="M196.18,79.85a20.69,20.69,0,0,0-2.21-.34,22.78,22.78,0,0,0-4.95-.18c-1.37-.15-3.15,1.34-1.15,1.6,1.6.18,3.2.26,4.8.5,1.28.18,2.58.77,3.86.26S197.34,80.13,196.18,79.85Z"/><path class="cls-2" d="M221,75.13a15.06,15.06,0,0,0-2.24.27,19.35,19.35,0,0,0-4.55,1.21c-1.33.23-1.87,2,.12,1.74,1.56-.26,3.05-.63,4.65-.87,1.28-.18,2.86,0,3.63-.81S222.16,75.06,221,75.13Z"/><path class="cls-2" d="M210.73,83.46a15.06,15.06,0,0,0-1.9,0,17,17,0,0,0-4,.58c-1.14.07-2,1.51-.32,1.43,1.35-.08,2.66-.25,4-.3,1.1,0,2.36.26,3.17-.34S211.76,83.52,210.73,83.46Z"/><path class="cls-2" d="M228.89,82.65c-.54-.2-1.13-.34-1.7-.49a17.44,17.44,0,0,0-4-.61c-1.08-.25-2.88.8-1.31,1.19,1.24.31,2.52.52,3.77.87,1,.26,1.9.87,3.07.56S229.78,83,228.89,82.65Z"/><path class="cls-2" d="M220.52,89.48a12.39,12.39,0,0,0-1.47-.21,12.56,12.56,0,0,0-3.24-.12c-.89-.1-2,.88-.73,1,1,.14,2.08.18,3.13.34a4.84,4.84,0,0,0,2.53.18C221.66,90.32,221.27,89.67,220.52,89.48Z"/><path class="cls-2" d="M230.1,86.39a8.45,8.45,0,0,0-1.45.19,12,12,0,0,0-3,.79c-.88.15-1.21,1.35.08,1.13,1-.16,2-.4,3-.56s1.87,0,2.38-.54S231,86.36,230.1,86.39Z"/><path class="cls-2" d="M217.79,35a37.31,37.31,0,0,0-9,.94c-1.77.1-3.08,2.31-.49,2.18,2.08-.1,4.06-.37,6.15-.44,1.65,0,3.57.37,4.82-.52S219.37,35.09,217.79,35Z"/><path class="cls-2" d="M231.51,32.28a19.47,19.47,0,0,0-2.61-.75,25.47,25.47,0,0,0-6.08-.91c-1.65-.4-4.41,1.2-2,1.81,1.92.47,3.88.79,5.8,1.32,1.51.4,2.89,1.32,4.68.86C233.25,34.1,232.86,32.8,231.51,32.28Z"/><path class="cls-2" d="M218.69,42.74a18.31,18.31,0,0,0-2.22-.35,20.87,20.87,0,0,0-4.93-.17c-1.38-.17-3.17,1.33-1.15,1.58,1.6.2,3.2.27,4.8.52,1.28.18,2.58.77,3.86.26S219.86,43,218.69,42.74Z"/><path class="cls-2" d="M233.37,38a16.76,16.76,0,0,0-2.23.27,18.78,18.78,0,0,0-4.54,1.2c-1.35.24-1.87,2.06.1,1.74,1.58-.25,3.06-.63,4.66-.86,1.28-.18,2.85,0,3.64-.81S234.63,38,233.37,38Z"/><path class="cls-2" d="M246.22,43.92a23.08,23.08,0,0,0-2.88.06,26.36,26.36,0,0,0-6.12.88c-1.76.11-3.08,2.32-.48,2.19,2-.11,4.06-.38,6.14-.45,1.65-.05,3.58.39,4.82-.52C249.1,45.07,247.8,44,246.22,43.92Z"/><path class="cls-2" d="M260,41.21a23.61,23.61,0,0,0-2.61-.76,26.69,26.69,0,0,0-6.09-.91c-1.65-.4-4.42,1.21-2,1.81,1.91.48,3.88.8,5.78,1.32,1.52.41,2.91,1.33,4.69.87C261.68,43,261.29,41.74,260,41.21Z"/><path class="cls-2" d="M247.13,51.66a20.49,20.49,0,0,0-2.22-.34,22.06,22.06,0,0,0-4.94-.18c-1.38-.15-3.17,1.34-1.16,1.6,1.6.2,3.22.27,4.82.5,1.28.19,2.57.78,3.84.26C248.9,52.93,248.29,52,247.13,51.66Z"/><path class="cls-2" d="M261.8,46.94a18.21,18.21,0,0,0-2.22.29A18.46,18.46,0,0,0,255,48.42c-1.34.23-1.88,2,.11,1.74,1.56-.26,3.06-.64,4.66-.87,1.27-.17,2.85,0,3.63-.81S263.05,46.87,261.8,46.94Z"/><path class="cls-2" d="M239.72,22.37a23.4,23.4,0,0,0-2.9.06,26.36,26.36,0,0,0-6.12.88c-1.75.12-3.06,2.31-.47,2.19,2.06-.11,4-.37,6.13-.45,1.66-.05,3.57.37,4.82-.52C242.58,23.52,241.3,22.46,239.72,22.37Z"/><path class="cls-2" d="M266.28,23.57a26.05,26.05,0,0,0-2.61-.77,26.52,26.52,0,0,0-6.08-.91c-1.65-.39-4.41,1.21-2,1.81,1.92.48,3.89.8,5.78,1.32,1.51.41,2.91,1.34,4.69.88C268,25.39,267.63,24.09,266.28,23.57Z"/><path class="cls-2" d="M253.63,31.93a20.76,20.76,0,0,0-2.21-.36,22,22,0,0,0-5-.18c-1.36-.15-3.16,1.35-1.14,1.6,1.59.2,3.2.27,4.8.52,1.28.18,2.58.77,3.86.26S254.79,32.21,253.63,31.93Z"/><path class="cls-2" d="M278.36,27.19a20.74,20.74,0,0,0-2.22.29,18.41,18.41,0,0,0-4.55,1.2c-1.33.24-1.87,2,.11,1.74,1.57-.27,3.05-.64,4.65-.86,1.28-.19,2.86,0,3.64-.82S279.62,27.12,278.36,27.19Z"/><path class="cls-2" d="M268.18,35.54a15.06,15.06,0,0,0-1.9,0,16.94,16.94,0,0,0-4,.57c-1.15.08-2,1.52-.32,1.43,1.35-.06,2.66-.24,4-.28,1.09,0,2.36.24,3.17-.34S269.21,35.59,268.18,35.54Z"/><path class="cls-2" d="M286.34,34.72a12.23,12.23,0,0,0-1.7-.48,16.41,16.41,0,0,0-4-.61c-1.08-.26-2.89.79-1.32,1.19,1.25.3,2.53.51,3.78.86,1,.27,1.9.86,3.06.57S287.22,35.06,286.34,34.72Z"/><path class="cls-2" d="M278,41.56a10.23,10.23,0,0,0-1.47-.23,13.27,13.27,0,0,0-3.21-.11c-.91-.11-2.08.86-.76,1,1,.14,2.09.18,3.15.33a4.66,4.66,0,0,0,2.51.18C279.12,42.39,278.73,41.75,278,41.56Z"/><path class="cls-2" d="M287.55,38.47a8.86,8.86,0,0,0-1.44.18,12,12,0,0,0-3,.78c-.89.16-1.23,1.35.07,1.14,1-.17,2-.41,3-.57.84-.11,1.87,0,2.37-.53S288.38,38.42,287.55,38.47Z"/></g></g></svg>