<svg xmlns="http://www.w3.org/2000/svg" viewBox="0 0 216.41 83.96"><defs><style>.cls-1{isolation:isolate;}.cls-2{fill:#ba4e63;}.cls-3{fill:#c6657d;}.cls-4,.cls-5{fill:#d38d91;}.cls-5{opacity:0.5;mix-blend-mode:screen;}</style></defs><title>Zasób 4</title><g class="cls-1"><g id="Warstwa_2" data-name="Warstwa 2"><g id="Layer_1" data-name="Layer 1"><path class="cls-2" d="M75.2,21.67c0-.06-.06-.1-.11-.13A8,8,0,0,1,74.74,20c-.18-.67-.62-1.34-.84-2-.09-.22-.05-.89-.68-.94A18.77,18.77,0,0,0,71,17a28.81,28.81,0,0,0-4.72.07,21.92,21.92,0,0,0-2.91.22.31.31,0,0,0-.29.17,1,1,0,0,0-.07.41c-.25.56-.43,1.49-.27,1.09-.37.9-.76,1.82-1.06,2.73,0,0,0,0,0,0s-.05.07,0,.11a3.27,3.27,0,0,0,.34.74c.11.29.27.6.46,1.06,0,.14,0,.63.28.71a16,16,0,0,0,4,.06,49.15,49.15,0,0,0,7.88-.33C75.83,23.85,75.18,22.23,75.2,21.67Z"/><path class="cls-3" d="M72.4,23.94c-1.81.12-3.67.08-5.49.08-.9,0-1.8,0-2.7,0-1.31,0-1.11-.41-1.36-.94a7.07,7.07,0,0,1-.46-1.1.38.38,0,0,1,0-.1c1.6.14,3.57-.08,5.12-.08a63.65,63.65,0,0,0,7,.05c0,.49,0,1,0,1.47C74.56,24,73.09,23.89,72.4,23.94Z"/><path class="cls-4" d="M74,21.65c-1.12,0-2.27,0-3.4-.06-2-.06-4-.15-6-.15-1.74,0-2.12.14-1.73-1,.21-.58.07-1.6.51-2.25,0,0,.08-.05.08-.09v0a1.36,1.36,0,0,1,1-.45c.85-.07,1.71-.18,2.57-.27l.87,0c.71,0,4.94-.3,5.31,0s.44,1.23.62,1.65a6.25,6.25,0,0,1,.66,2C74.54,21.61,75,21.64,74,21.65Z"/><path class="cls-5" d="M63.84,19.41c-.05.48.37.75,1,.87a5,5,0,0,0,2.3.34c1.73-.16,3.48-1.07,3.3-1.82C70,17,64,18,63.84,19.41Z"/><path class="cls-2" d="M154.55,3.5a.1.1,0,0,0-.07-.09,5.65,5.65,0,0,1-.29-1.18,12.55,12.55,0,0,0-.62-1.48c0-.16,0-.66-.49-.69a11.77,11.77,0,0,0-1.68,0,20.48,20.48,0,0,0-3.49.05,17.46,17.46,0,0,0-2.17.16.23.23,0,0,0-.21.13,1.06,1.06,0,0,0,0,.32c-.19.39-.33,1.09-.2.79-.28.66-.56,1.35-.8,2,0,0,0,0,0,0a.11.11,0,0,0,0,.06,1.83,1.83,0,0,0,.26.57c.07.21.19.44.34.78,0,.09,0,.47.21.54a11.54,11.54,0,0,0,2.94,0,35.62,35.62,0,0,0,5.85-.22C155,5.12,154.53,3.92,154.55,3.5Z"/><path class="cls-3" d="M152.48,5.18c-1.33.09-2.73.06-4.08.06l-2,0c-1,0-.81-.3-1-.69a3.63,3.63,0,0,1-.34-.81.15.15,0,0,1,0-.08c1.18.1,2.64-.07,3.79-.07a48.21,48.21,0,0,0,5.24.05c0,.36,0,.73,0,1.08S153,5.15,152.48,5.18Z"/><path class="cls-4" d="M153.67,3.48c-.84,0-1.68,0-2.52,0-1.49,0-3-.1-4.45-.1-1.31,0-1.57.08-1.3-.77.15-.42.07-1.18.37-1.66,0,0,.07-.05.07-.07v0a1.17,1.17,0,0,1,.74-.35c.62,0,1.26-.12,1.9-.2l.66,0c.52,0,3.66-.23,3.92,0s.34.92.48,1.22A5,5,0,0,1,154,3C154.06,3.46,154.43,3.48,153.67,3.48Z"/><path class="cls-5" d="M146.12,1.82c0,.34.27.55.75.65a3.59,3.59,0,0,0,1.7.25c1.3-.12,2.59-.79,2.44-1.35C150.67,0,146.23.74,146.12,1.82Z"/><path class="cls-2" d="M124.65,25.31s0,0-.05-.07a4.11,4.11,0,0,1-.18-.86c-.1-.36-.34-.71-.48-1.08,0-.12,0-.48-.35-.5s-.81,0-1.22,0a14.56,14.56,0,0,0-2.55,0,14.16,14.16,0,0,0-1.59.11c-.08,0-.15,0-.15.1a.67.67,0,0,0,0,.22c-.16.3-.25.81-.16.59-.19.49-.42,1-.59,1.48,0,0,0,0,0,0s0,0,0,0a1.62,1.62,0,0,0,.19.4c.05.16.15.33.25.59,0,.06,0,.33.15.38a9.15,9.15,0,0,0,2.16,0,25.51,25.51,0,0,0,4.28-.17C125,26.5,124.65,25.61,124.65,25.31Z"/><path class="cls-3" d="M123.15,26.54c-1,.07-2,0-3,0q-.73,0-1.47,0c-.71,0-.6-.22-.74-.51a3.37,3.37,0,0,1-.25-.6.07.07,0,0,0,0-.05c.87.07,1.93-.05,2.77-.05a32.65,32.65,0,0,0,3.83,0c0,.28,0,.54,0,.8S123.52,26.51,123.15,26.54Z"/><path class="cls-4" d="M124,25.3c-.63,0-1.25,0-1.86,0-1.08,0-2.16-.07-3.25-.07s-1.14.07-.94-.56c.1-.31,0-.86.27-1.21,0,0,0,0,0-.05v0a.86.86,0,0,1,.54-.25c.45,0,.93-.08,1.39-.14h.48a16,16,0,0,1,2.86,0c.2.18.25.67.36.9a3.59,3.59,0,0,1,.35,1.08C124.32,25.29,124.56,25.3,124,25.3Z"/><path class="cls-5" d="M118.5,24.08c0,.26.2.42.54.48a2.63,2.63,0,0,0,1.26.18c.93-.08,1.87-.58,1.77-1C121.83,22.76,118.59,23.3,118.5,24.08Z"/><path class="cls-2" d="M10.18,25.91c0-.05,0-.06-.06-.07-.11-.29-.11-.58-.2-.86s-.32-.72-.43-1.09c-.06-.12,0-.49-.37-.51a10.26,10.26,0,0,0-1.24,0,14.44,14.44,0,0,0-2.54,0,12.29,12.29,0,0,0-1.6.11.18.18,0,0,0-.15.11.64.64,0,0,0,0,.22c-.14.29-.24.81-.15.59-.19.48-.41,1-.58,1.48,0,0,0,0,0,0s0,0,0,0a1.33,1.33,0,0,0,.19.4c0,.16.15.33.23.58,0,.07,0,.35.16.39a8.56,8.56,0,0,0,2.15,0,25.33,25.33,0,0,0,4.28-.18C10.53,27.09,10.18,26.21,10.18,25.91Z"/><path class="cls-3" d="M8.66,27.13c-1,.08-2,0-3,.05H4.23c-.72,0-.6-.22-.74-.51a3.26,3.26,0,0,1-.25-.58.08.08,0,0,0,0-.07c.88.08,1.94,0,2.78,0a32.64,32.64,0,0,0,3.83,0c0,.28,0,.54,0,.81S9,27.11,8.66,27.13Z"/><path class="cls-4" d="M9.55,25.89c-.62,0-1.24,0-1.85,0-1.09,0-2.16-.07-3.25-.07s-1.16.07-.94-.55c.1-.31,0-.88.27-1.22l0-.05s0,0,0,0a.72.72,0,0,1,.54-.26c.45,0,.92-.09,1.39-.14h.48a15,15,0,0,1,2.86,0c.2.18.25.67.35.9a3.86,3.86,0,0,1,.36,1.07C9.83,25.88,10.09,25.89,9.55,25.89Z"/><path class="cls-5" d="M4,24.68c0,.25.2.4.54.46a2.45,2.45,0,0,0,1.25.19c.94-.08,1.9-.57,1.78-1C7.35,23.35,4.1,23.89,4,24.68Z"/><path class="cls-2" d="M75.46,66.33s0,0,0-.06a5.78,5.78,0,0,1-.21-.87,8.33,8.33,0,0,0-.46-1.08c0-.12,0-.49-.35-.51s-.82,0-1.23,0a17,17,0,0,0-2.56,0A14.36,14.36,0,0,0,69,64a.19.19,0,0,0-.15.1.53.53,0,0,0,0,.22c-.13.3-.23.81-.13.58-.22.5-.42,1-.59,1.5,0,0,0,0,0,0l0,0a1.83,1.83,0,0,0,.21.42c0,.16.13.32.23.57,0,.07,0,.34.16.39a8.12,8.12,0,0,0,2.15,0,26.43,26.43,0,0,0,4.28-.16C75.82,67.52,75.46,66.63,75.46,66.33Z"/><path class="cls-3" d="M74,67.56c-1,.06-2,0-3,0l-1.47,0c-.69,0-.59-.22-.72-.51a2.88,2.88,0,0,1-.26-.59.2.2,0,0,0,0,0c.87.07,1.94-.06,2.78-.06a32.48,32.48,0,0,0,3.82,0c0,.28,0,.53,0,.81S74.32,67.54,74,67.56Z"/><path class="cls-4" d="M74.83,66.32l-1.84,0c-1.1,0-2.17-.08-3.25-.08s-1.17.08-.95-.56c.11-.31,0-.87.27-1.21,0,0,0,0,0,0h0a.71.71,0,0,1,.54-.25L71,64l.47,0a15.29,15.29,0,0,1,2.88,0c.21.18.24.67.36.9A4.19,4.19,0,0,1,75.09,66C75.11,66.29,75.38,66.32,74.83,66.32Z"/><path class="cls-5" d="M69.32,65.1c0,.26.2.41.54.47a2.58,2.58,0,0,0,1.26.19c.92-.08,1.87-.57,1.77-1C72.65,63.78,69.38,64.31,69.32,65.1Z"/><path class="cls-2" d="M152.21,40.26a.08.08,0,0,0,0-.08,4.25,4.25,0,0,1-.22-.85,10,10,0,0,0-.45-1.09c0-.12,0-.48-.35-.51s-.83,0-1.23,0a18.51,18.51,0,0,0-2.57,0c-.52,0-1,.05-1.58.12-.09,0-.14.06-.15.11a.49.49,0,0,0,0,.22c-.13.29-.23.8-.13.59-.2.49-.42,1-.59,1.48h0s0,0,0,.05a1.42,1.42,0,0,0,.2.41c0,.15.15.33.24.57,0,.08,0,.35.14.39a9.15,9.15,0,0,0,2.16,0,25.33,25.33,0,0,0,4.28-.18C152.56,41.43,152.21,40.55,152.21,40.26Z"/><path class="cls-3" d="M150.71,41.49c-1,.06-2,0-3,0h-1.47c-.71,0-.59-.22-.72-.51a2,2,0,0,1-.25-.59.08.08,0,0,0,0-.06c.86.08,1.93,0,2.78,0a32.46,32.46,0,0,0,3.82,0c0,.27,0,.54,0,.8S151.06,41.46,150.71,41.49Z"/><path class="cls-4" d="M151.57,40.25c-.61,0-1.23,0-1.84,0-1.1,0-2.17-.08-3.27-.08-.94,0-1.14.08-.93-.54.1-.31,0-.86.28-1.22,0,0,0,0,0-.06h0a.81.81,0,0,1,.54-.25c.47,0,.93-.09,1.39-.14h.5a15.05,15.05,0,0,1,2.86,0c.2.17.24.67.35.89a3.69,3.69,0,0,1,.34,1.07C151.87,40.23,152.12,40.25,151.57,40.25Z"/><path class="cls-5" d="M146.06,39c0,.27.2.41.54.49a3,3,0,0,0,1.24.17c.95-.08,1.89-.57,1.79-1C149.39,37.7,146.12,38.23,146.06,39Z"/><path class="cls-2" d="M10.06,54a.1.1,0,0,0-.07-.1,6.73,6.73,0,0,1-.27-1.18c-.14-.5-.45-1-.62-1.47-.07-.18,0-.67-.49-.7s-1.11,0-1.68,0a23,23,0,0,0-3.51.06,18.25,18.25,0,0,0-2.17.17.25.25,0,0,0-.2.13.71.71,0,0,0,0,.3c-.2.41-.33,1.11-.2.8-.29.68-.57,1.37-.79,2a0,0,0,0,0,0,0s0,.06,0,.08a2,2,0,0,0,.26.55c.07.22.2.45.33.78,0,.11,0,.47.21.54a12.67,12.67,0,0,0,3,0,35.49,35.49,0,0,0,5.84-.23C10.55,55.62,10,54.41,10.06,54Z"/><path class="cls-3" d="M8,55.67c-1.33.09-2.73.07-4.08.07h-2c-1,0-.81-.29-1-.7a5.59,5.59,0,0,1-.35-.8.12.12,0,0,0,0-.08c1.18.1,2.64-.06,3.79-.06a45.84,45.84,0,0,0,5.24,0c0,.36,0,.72,0,1.09S8.49,55.64,8,55.67Z"/><path class="cls-4" d="M9.18,54c-.82,0-1.68,0-2.52,0-1.49,0-2.95-.11-4.45-.12-1.3,0-1.56.12-1.28-.74.15-.42,0-1.19.37-1.66,0,0,.05-.06.05-.08l0,0A1,1,0,0,1,2.09,51L4,50.77l.65,0c.51,0,3.65-.22,3.92,0s.34.92.47,1.22a4.32,4.32,0,0,1,.49,1.47C9.57,54,9.94,54,9.18,54Z"/><path class="cls-5" d="M1.64,52.31c0,.36.28.56.74.65a3.58,3.58,0,0,0,1.72.25c1.28-.12,2.57-.79,2.44-1.35C6.18,50.5,1.75,51.24,1.64,52.31Z"/><path class="cls-2" d="M136.41,81.85c0-.06,0-.08-.09-.1a5.32,5.32,0,0,1-.27-1.18c-.12-.49-.45-1-.62-1.47-.07-.18,0-.66-.49-.7a15.69,15.69,0,0,0-1.68,0,20.51,20.51,0,0,0-3.49.06,20,20,0,0,0-2.17.15.22.22,0,0,0-.21.14.79.79,0,0,0,0,.3c-.2.4-.32,1.11-.2.8-.27.67-.57,1.36-.79,2,0,0,0,0,0,0s0,0,0,.06a5.79,5.79,0,0,0,.25.57c.09.2.21.43.34.78,0,.09,0,.47.22.53a11.61,11.61,0,0,0,3,0,35.45,35.45,0,0,0,5.84-.24C136.88,83.47,136.39,82.26,136.41,81.85Z"/><path class="cls-3" d="M134.32,83.53c-1.33.08-2.73.06-4.06.06l-2,0c-1,0-.84-.3-1-.7a5.21,5.21,0,0,1-.35-.81.1.1,0,0,0,0-.07c1.2.1,2.65-.07,3.79-.07a48.27,48.27,0,0,0,5.24,0c0,.37,0,.72,0,1.09S134.82,83.5,134.32,83.53Z"/><path class="cls-4" d="M135.53,81.83c-.84,0-1.68,0-2.53,0-1.5-.05-3-.12-4.44-.12-1.32,0-1.59.11-1.3-.75.15-.43,0-1.18.39-1.66,0,0,0-.05,0-.08h0a1,1,0,0,1,.74-.34l1.9-.21a5.09,5.09,0,0,0,.66,0c.5,0,3.66-.23,3.92,0s.32.92.48,1.23a5,5,0,0,1,.47,1.46C135.92,81.8,136.29,81.83,135.53,81.83Z"/><path class="cls-5" d="M128,80.17c0,.35.27.55.74.64a3.63,3.63,0,0,0,1.7.26c1.31-.12,2.6-.79,2.45-1.36C132.53,78.35,128.09,79.09,128,80.17Z"/><path class="cls-2" d="M216.3,30.71c0-.06,0-.08-.07-.11a5.23,5.23,0,0,1-.27-1.17c-.13-.5-.46-1-.62-1.48-.07-.16,0-.66-.49-.7a15.71,15.71,0,0,0-1.68,0,24.42,24.42,0,0,0-3.51.05c-.72,0-1.43.07-2.17.17a.26.26,0,0,0-.21.14.91.91,0,0,0,0,.3c-.19.41-.31,1.1-.19.8-.29.67-.57,1.36-.81,2,0,0,0,0,0,0s-.06.05,0,.07a2,2,0,0,0,.25.56c.07.22.21.45.34.78,0,.1,0,.47.2.53a12.23,12.23,0,0,0,3,0,34.22,34.22,0,0,0,5.83-.24C216.78,32.33,216.28,31.11,216.3,30.71Z"/><path class="cls-3" d="M214.23,32.39c-1.33.08-2.73,0-4.08.06l-2,0c-1,0-.83-.3-1-.71a5.14,5.14,0,0,1-.35-.8.12.12,0,0,0,0-.08c1.18.1,2.64-.07,3.79-.07a45.83,45.83,0,0,0,5.24.05c0,.36,0,.73,0,1.09S214.73,32.34,214.23,32.39Z"/><path class="cls-4" d="M215.44,30.69c-.84,0-1.68,0-2.54-.06-1.49,0-3-.1-4.43-.1-1.32,0-1.59.1-1.3-.75.13-.43.05-1.19.37-1.67,0,0,.07-.05.07-.08v0a1.06,1.06,0,0,1,.72-.33c.64-.05,1.28-.12,1.9-.21l.66,0c.52,0,3.67-.21,3.92,0s.34.92.47,1.23a4.45,4.45,0,0,1,.49,1.48C215.81,30.67,216.18,30.69,215.44,30.69Z"/><path class="cls-5" d="M207.88,29c0,.35.28.56.74.65a3.76,3.76,0,0,0,1.71.26c1.29-.12,2.58-.8,2.45-1.36C212.44,27.21,208,27.94,207.88,29Z"/></g></g></g></svg>