<svg xmlns="http://www.w3.org/2000/svg" viewBox="0 0 191.88 74.01"><defs><style>.cls-1{fill:#618d2e;}.cls-2{fill:#a8c813;}.cls-3{fill:#56af34;}.cls-4{fill:#80ba2b;}</style></defs><title>Zasób 3</title><g id="Warstwa_2" data-name="Warstwa 2"><g id="Layer_1" data-name="Layer 1"><path class="cls-1" d="M36.25,4.58a5.17,5.17,0,0,0-.68-2.35.68.68,0,0,1-.1-.24C33.54.91,27.49.15,26.6.07,23-.22,19.35.47,15.75.68,14,.77,12.83,2.2,11.81,3.06a.58.58,0,0,1-.14.13c-.13.11-.27.2-.38.29s0,0,0,0l-.11.1a.42.42,0,0,1,0,.27,2.54,2.54,0,0,0,0,1.8c.52.69,1.73.56,4.11.8C20.05,7,26,7.49,29.44,9.89c.17.12.42,0,.56-.1h.06a28.83,28.83,0,0,0,3.51-2.42,17,17,0,0,0,2.69-2.57A1.41,1.41,0,0,1,36.25,4.58Z"/><path class="cls-2" d="M22.79,6.94a35.25,35.25,0,0,0-6.32-.89c-.74,0-4.21-.07-4.6-.44a4.09,4.09,0,0,1-.74-1.13c3.19-.72,7.67-.27,10.8.18a26,26,0,0,1,3.18.65A13.15,13.15,0,0,1,29.26,7a12.82,12.82,0,0,0,.15,2.09C28,8,24.81,7.37,22.79,6.94Z"/><path class="cls-3" d="M33.74,6.36c-.59.54-1.28,1-1.82,1.59A16,16,0,0,1,30.3,9.12,5,5,0,0,0,30.13,7c1.64-.42,4-2.31,5.21-3.38,0,.12,0,.25,0,.38C35.45,5,34.6,5.55,33.74,6.36Z"/><path class="cls-4" d="M35.36,2.84c-.12.37-.91.75-1.62,1.31A16.15,16.15,0,0,1,30,6.44c-.08-.1-.25-.1-.43,0-2.9-1.94-8-2.4-12-2.75-1.85-.15-3.69.14-5.53.14a.62.62,0,0,0-.18,0,14.53,14.53,0,0,1,1.59-1.53,6.62,6.62,0,0,1,3.41-1.24C20.58.85,24.08.37,28,.68a27.52,27.52,0,0,1,4.65.85c2.09.52,2.78.88,2.75,1.24Z"/><path class="cls-1" d="M49.45,30.19a5,5,0,0,0-.65-2.35.39.39,0,0,1-.1-.24c-2-1.08-8-1.85-8.88-1.92-3.64-.29-7.26.4-10.85.61-1.75.1-2.91,1.52-3.94,2.4a.47.47,0,0,0-.13.11c-.16.11-.27.21-.41.29s0,0,0,0l-.08.09a.54.54,0,0,1,0,.28,2.36,2.36,0,0,0,0,1.79c.54.71,1.75.56,4.11.8,4.8.49,10.76,1,14.2,3.42.14.12.4,0,.53-.11h.07A27.88,27.88,0,0,0,46.79,33a15.68,15.68,0,0,0,2.68-2.57A.75.75,0,0,0,49.45,30.19Z"/><path class="cls-2" d="M36,32.55a36.29,36.29,0,0,0-6.33-.88c-.74,0-4.2-.07-4.6-.44a3.3,3.3,0,0,1-.72-1.13c3.16-.71,7.64-.28,10.79.16a32.35,32.35,0,0,1,3.17.66,13.06,13.06,0,0,1,4.14,1.68,13.41,13.41,0,0,0,.17,2.09C41.18,33.61,38,33,36,32.55Z"/><path class="cls-3" d="M46.94,32c-.58.55-1.26,1-1.81,1.6a13.14,13.14,0,0,1-1.6,1.17,4.72,4.72,0,0,0-.19-2.17c1.65-.42,4-2.31,5.2-3.38,0,.14,0,.26,0,.4C48.68,30.62,47.82,31.16,46.94,32Z"/><path class="cls-4" d="M48.58,28.45c-.12.37-.93.75-1.62,1.31a16.84,16.84,0,0,1-3.77,2.3.37.37,0,0,0-.44,0c-2.9-1.94-8-2.41-12-2.75-1.85-.15-3.68.13-5.52.13a.49.49,0,0,0-.2,0,14.72,14.72,0,0,1,1.6-1.54A6.61,6.61,0,0,1,30,26.66c3.8-.2,7.31-.67,11.18-.36a24.88,24.88,0,0,1,4.64.86c2.1.51,2.77.86,2.76,1.23Z"/><path class="cls-1" d="M58.79,46.9a11.82,11.82,0,0,0,2,1.92,19.55,19.55,0,0,0,2.63,1.8h0a.35.35,0,0,0,.4.09c2.56-1.8,7-2.19,10.58-2.55,1.77-.18,2.66-.08,3-.6a1.73,1.73,0,0,0,0-1.34.24.24,0,0,1,0-.2L77.41,46v0l-.3-.21-.1-.09c-.76-.65-1.63-1.71-2.93-1.78-2.68-.16-5.37-.68-8.1-.46-.66.06-5.16.63-6.61,1.44a.41.41,0,0,1-.07.17,3.78,3.78,0,0,0-.5,1.75A.86.86,0,0,0,58.79,46.9Z"/><path class="cls-2" d="M63.89,50.09A8.27,8.27,0,0,0,64,48.55a9.6,9.6,0,0,1,3.1-1.25,19.48,19.48,0,0,1,2.37-.49,24.64,24.64,0,0,1,8-.12,2.75,2.75,0,0,1-.56.84c-.29.27-2.85.29-3.42.32a27.1,27.1,0,0,0-4.72.66C67.32,48.84,65,49.3,63.89,50.09Z"/><path class="cls-3" d="M59.46,46.28c0-.09,0-.19,0-.29a12.56,12.56,0,0,0,3.88,2.53,3.69,3.69,0,0,0-.12,1.62A8.75,8.75,0,0,1,62,49.27c-.43-.42-.93-.8-1.37-1.2C60,47.47,59.37,47.07,59.46,46.28Z"/><path class="cls-4" d="M59.46,45.4c0-.27.49-.54,2-.92A20.16,20.16,0,0,1,65,43.85a59.13,59.13,0,0,1,8.33.27,5.07,5.07,0,0,1,2.55.92A12.91,12.91,0,0,1,77,46.19a.49.49,0,0,0-.15,0c-1.37,0-2.73-.21-4.11-.09-3,.25-6.81.59-9,2a.3.3,0,0,0-.31,0,11.14,11.14,0,0,1-2.81-1.71c-.52-.42-1.12-.7-1.21-1Z"/><path class="cls-1" d="M173,5.48a10.74,10.74,0,0,0,2,1.91,20,20,0,0,0,2.61,1.81h.07a.36.36,0,0,0,.39.08c2.58-1.8,7-2.19,10.59-2.55,1.76-.18,2.66-.07,3.05-.61a1.62,1.62,0,0,0,0-1.33,1.41,1.41,0,0,1,0-.2l-.07-.07s0,0,0,0a3.39,3.39,0,0,1-.29-.21.21.21,0,0,0-.12-.08c-.75-.66-1.61-1.73-2.93-1.8-2.67-.15-5.37-.67-8.08-.45-.66,0-5.16.63-6.62,1.43a.51.51,0,0,1-.07.18,3.65,3.65,0,0,0-.49,1.75A.92.92,0,0,0,173,5.48Z"/><path class="cls-2" d="M178.14,8.67a12.6,12.6,0,0,0,.12-1.55,9.21,9.21,0,0,1,3.1-1.25,19.32,19.32,0,0,1,2.36-.49,25.15,25.15,0,0,1,8-.13,2.28,2.28,0,0,1-.54.85c-.29.27-2.86.3-3.43.32a25.11,25.11,0,0,0-4.7.67C181.58,7.42,179.22,7.88,178.14,8.67Z"/><path class="cls-3" d="M173.71,4.86a1.37,1.37,0,0,1,0-.29,11.87,11.87,0,0,0,3.87,2.52,3.87,3.87,0,0,0-.13,1.62,11.08,11.08,0,0,1-1.2-.87c-.4-.42-.91-.8-1.36-1.19C174.27,6.05,173.63,5.64,173.71,4.86Z"/><path class="cls-4" d="M173.71,4c0-.27.49-.53,2-.92a20.65,20.65,0,0,1,3.47-.64,60.63,60.63,0,0,1,8.32.28,5,5,0,0,1,2.56.92,14.37,14.37,0,0,1,1.18,1.15.49.49,0,0,0-.15,0c-1.36,0-2.73-.21-4.11-.1-3,.25-6.81.6-9,2.05-.12-.05-.25-.05-.3,0A11.94,11.94,0,0,1,174.91,5c-.53-.43-1.11-.71-1.2-1Z"/><path class="cls-1" d="M145.72,70.16a12.18,12.18,0,0,0,2,1.91,20.39,20.39,0,0,0,2.61,1.81h0c.1.08.29.17.41.08,2.57-1.79,7-2.18,10.58-2.55,1.76-.18,2.67-.07,3.06-.6a1.62,1.62,0,0,0,0-1.33.34.34,0,0,1,0-.2l-.08-.08a0,0,0,0,0,0,0L164,69l-.1-.09c-.76-.65-1.63-1.71-2.95-1.79-2.68-.15-5.37-.66-8.08-.45-.66.06-5.16.63-6.62,1.43a.26.26,0,0,1-.07.18,3.62,3.62,0,0,0-.49,1.76A.76.76,0,0,0,145.72,70.16Z"/><path class="cls-2" d="M150.82,73.36a9.79,9.79,0,0,0,.12-1.56A9.72,9.72,0,0,1,154,70.55a20.91,20.91,0,0,1,2.38-.49,25.15,25.15,0,0,1,8-.13,2.46,2.46,0,0,1-.54.85c-.29.27-2.86.29-3.42.32a26.73,26.73,0,0,0-4.71.66C154.25,72.09,151.9,72.55,150.82,73.36Z"/><path class="cls-3" d="M146.39,69.55c0-.11,0-.2,0-.3a12,12,0,0,0,3.87,2.52,3.57,3.57,0,0,0-.13,1.62,9.83,9.83,0,0,1-1.2-.87c-.4-.41-.91-.79-1.35-1.2C147,70.73,146.3,70.32,146.39,69.55Z"/><path class="cls-4" d="M146.39,68.66c0-.27.49-.54,2.06-.93a20.67,20.67,0,0,1,3.45-.64,62.46,62.46,0,0,1,8.33.28,4.93,4.93,0,0,1,2.53.93,11,11,0,0,1,1.2,1.14.3.3,0,0,0-.15,0c-1.37,0-2.73-.21-4.11-.09-3,.24-6.81.59-9,2-.12,0-.26,0-.31,0a12.3,12.3,0,0,1-2.81-1.71c-.54-.43-1.13-.71-1.21-1Z"/><path class="cls-1" d="M155.13,33.53a11.47,11.47,0,0,0,2,1.91,20.51,20.51,0,0,0,2.62,1.81l.06,0a.38.38,0,0,0,.4.07c2.56-1.79,7-2.18,10.58-2.55,1.76-.17,2.66-.07,3.06-.6a1.75,1.75,0,0,0,0-1.33.36.36,0,0,1,0-.2l-.07-.08s0,0,0,0-.19-.15-.29-.22l-.11-.09c-.78-.65-1.62-1.7-2.93-1.79-2.68-.14-5.39-.66-8.11-.45-.63,0-5.15.63-6.6,1.43a.56.56,0,0,1-.07.19,3.68,3.68,0,0,0-.5,1.75A.39.39,0,0,0,155.13,33.53Z"/><path class="cls-2" d="M160.25,36.73a12.3,12.3,0,0,0,.13-1.56,9.44,9.44,0,0,1,3.08-1.25,23.33,23.33,0,0,1,2.35-.49,25.58,25.58,0,0,1,8.05-.12,2.52,2.52,0,0,1-.54.84c-.28.28-2.87.3-3.43.32a27,27,0,0,0-4.72.67C163.67,35.47,161.31,35.93,160.25,36.73Z"/><path class="cls-3" d="M155.81,32.92c0-.11,0-.2,0-.3a11.7,11.7,0,0,0,3.89,2.52,3.58,3.58,0,0,0-.13,1.62,10.74,10.74,0,0,1-1.2-.87c-.42-.42-.91-.79-1.36-1.19C156.38,34.11,155.74,33.69,155.81,32.92Z"/><path class="cls-4" d="M155.81,32c0-.26.48-.53,2.05-.92a20.28,20.28,0,0,1,3.47-.65,60.74,60.74,0,0,1,8.32.29,5,5,0,0,1,2.55.92,9.77,9.77,0,0,1,1.17,1.14.27.27,0,0,0-.13,0c-1.38,0-2.75-.21-4.12-.1-3,.25-6.8.61-9,2.06a.28.28,0,0,0-.32,0,12.23,12.23,0,0,1-2.83-1.7c-.51-.41-1.11-.71-1.19-1Z"/><path class="cls-1" d="M0,62.25a10.76,10.76,0,0,0,2,1.91A20.16,20.16,0,0,0,4.62,66h0a.36.36,0,0,0,.4.07c2.56-1.79,7-2.18,10.58-2.55,1.77-.17,2.66-.07,3-.6a1.8,1.8,0,0,0,0-1.33.24.24,0,0,1,0-.2l-.06-.08s0,0,0,0a2.43,2.43,0,0,1-.31-.21l-.1-.09c-.76-.65-1.63-1.71-2.94-1.79-2.67-.15-5.37-.66-8.08-.45-.65.06-5.17.63-6.62,1.44a.58.58,0,0,1-.06.17A3.8,3.8,0,0,0,0,62.11Z"/><path class="cls-2" d="M5.09,65.45a11.16,11.16,0,0,0,.12-1.56A9.4,9.4,0,0,1,8.3,62.65a23.36,23.36,0,0,1,2.38-.5c2.32-.32,5.66-.66,8-.11a2.33,2.33,0,0,1-.54.83c-.29.27-2.88.3-3.43.32a27,27,0,0,0-4.72.67C8.52,64.2,6.16,64.64,5.09,65.45Z"/><path class="cls-3" d="M.66,61.64a2.77,2.77,0,0,1,0-.3,11.57,11.57,0,0,0,3.86,2.52,3.72,3.72,0,0,0-.12,1.62,12.25,12.25,0,0,1-1.2-.87c-.42-.41-.92-.78-1.36-1.19C1.23,62.83.57,62.41.66,61.64Z"/><path class="cls-4" d="M.66,60.75c0-.26.49-.53,2.05-.92a20.28,20.28,0,0,1,3.47-.64,62.25,62.25,0,0,1,8.32.28,4.9,4.9,0,0,1,2.55.93,11.44,11.44,0,0,1,1.17,1.13l-.13,0c-1.36,0-2.75-.21-4.13-.09-3,.25-6.8.61-9,2a.3.3,0,0,0-.32,0,11.84,11.84,0,0,1-2.81-1.7c-.52-.41-1.13-.71-1.2-1A.09.09,0,0,1,.66,60.75Z"/></g></g></svg>