<svg xmlns="http://www.w3.org/2000/svg" viewBox="0 0 225.39 86.28"><defs><style>.cls-1{fill:#a7a08c;}.cls-2{fill:#c5bca4;}.cls-3{fill:#d9dbc0;}.cls-4{fill:#eae3cf;}</style></defs><title>Zasób 2</title><g id="Warstwa_2" data-name="Warstwa 2"><g id="Layer_1" data-name="Layer 1"><path class="cls-1" d="M52.39,56.12a7.62,7.62,0,0,0,5.08-1.38c.59-.48,1.64-1.29,1.82-1.87A3.76,3.76,0,0,0,59,50.41c-.72-1.14-3.2-1.24-4.88-1.78A31.85,31.85,0,0,0,42.92,47.4a37.81,37.81,0,0,0-6.25.91c-3,.71-6.28,1.39-6,4,.2,2.08,5.17,1.91,7.45,2.77.4,1-.61.6-1.44,1.23,0,0,0,1,0,1-.57,1.59,7.46,1.76,9,1.76.79,0,1.59,0,2.35-.06a5.33,5.33,0,0,0,.63-.14C49.44,57.7,49.83,56.05,52.39,56.12Z"/><path class="cls-2" d="M52.39,55.24a7.68,7.68,0,0,0,5.08-1.4c.59-.48,1.64-1.28,1.82-1.86a2.79,2.79,0,0,0-.52-2c-.72-1.14-3-1.67-4.63-2.21a32.08,32.08,0,0,0-11.22-1.22,37.8,37.8,0,0,0-6.25.9c-3,.71-5.13,2-5.93,3.92s5.09,2,7.37,2.89c.4,1-.61,1.5-1.44,2.13a.28.28,0,0,1,0,.13c-.57,1.6,7.46,1.77,9,1.77.79,0,1.59,0,2.35-.08a5.38,5.38,0,0,0,.63-.13C49.44,56.82,49.83,55.17,52.39,55.24Z"/><path class="cls-3" d="M56.48,49.5a30.12,30.12,0,0,0-8.39-2.17A28.76,28.76,0,0,0,42.22,47a25.34,25.34,0,0,0-7.17,1.56c-1.36.5-2.79,1.23-3,2.28s1.38,2.1,3,2.4c1,.18,2,.29,3,.43a1.73,1.73,0,0,1,.62.21c.85.63.8,1.28-.16,2.22-1.12,1.13-2.34.71,2.15,1.1,1.39.11,2.79.21,4.15.36,4.78.5,3.28-.6,4.77-2.09.7-.71,1.29-.64,2.51-.63C56.4,54.94,60.74,51.58,56.48,49.5Z"/><path class="cls-4" d="M37,49.74c1.39-1.19,4.13-1.33,6.3-1.86A19.13,19.13,0,0,0,35.41,49c-2.83.9-2.63,3.52.86,3.77a5.09,5.09,0,0,0,1.12,0C36.35,51.84,36,50.67,37,49.74Z"/><path class="cls-4" d="M39.74,53.31c-.05,0-.09,0-.07,0,.76.53.49,1,.49,1.66,0,.19.34.12.45,0C41.25,54.4,41.27,53.35,39.74,53.31Z"/><path class="cls-1" d="M135.82,42.71a7.71,7.71,0,0,0,5.1-1.39c.57-.48,1.61-1.28,1.8-1.86a3.86,3.86,0,0,0-.25-2.46c-.75-1.14-3.22-1.25-4.9-1.79A31.77,31.77,0,0,0,126.35,34a39.05,39.05,0,0,0-6.25.9c-3,.71-6.29,1.39-6,4,.23,2.09,5.18,1.92,7.45,2.78.42,1-.6.6-1.43,1.23,0,0,0,1,0,1-.58,1.6,7.48,1.77,9,1.77.79,0,1.58,0,2.34-.07a5.15,5.15,0,0,0,.64-.13C132.87,44.29,133.26,42.64,135.82,42.71Z"/><path class="cls-2" d="M135.82,41.82a7.77,7.77,0,0,0,5.1-1.39c.57-.48,1.61-1.28,1.8-1.87a2.76,2.76,0,0,0-.52-2c-.73-1.15-2.95-1.68-4.63-2.21a31.77,31.77,0,0,0-11.22-1.23,39.05,39.05,0,0,0-6.25.9c-3,.72-5.14,2-5.93,3.93s5.09,2,7.36,2.9c.42,1-.6,1.49-1.43,2.12,0,0,0,.08,0,.12-.58,1.6,7.48,1.76,9,1.76.79,0,1.58,0,2.34-.07a3.81,3.81,0,0,0,.64-.13C132.87,43.39,133.26,41.74,135.82,41.82Z"/><path class="cls-3" d="M139.93,36.09a30.54,30.54,0,0,0-8.41-2.18,28.69,28.69,0,0,0-5.86-.3,25,25,0,0,0-7.18,1.56c-1.36.5-2.79,1.22-3,2.26s1.4,2.11,3,2.4c1,.2,2,.31,3,.45a2.12,2.12,0,0,1,.63.2c.86.64.79,1.29-.16,2.23-1.11,1.13-2.34.71,2.16,1.09,1.36.12,2.76.22,4.12.35,4.79.52,3.29-.58,4.77-2.07.71-.71,1.3-.65,2.51-.63C139.82,41.52,144.17,38.17,139.93,36.09Z"/><path class="cls-4" d="M120.46,36.33c1.37-1.21,4.12-1.33,6.31-1.87a19.34,19.34,0,0,0-7.93,1.11c-2.83.9-2.63,3.52.86,3.78a8,8,0,0,0,1.12-.05C119.8,38.42,119.38,37.26,120.46,36.33Z"/><path class="cls-4" d="M123.16,39.89s-.08,0,0,.06c.75.53.48,1,.48,1.65,0,.19.33.13.45,0C124.68,41,124.7,39.93,123.16,39.89Z"/><path class="cls-1" d="M215.86,30.06A6.22,6.22,0,0,0,220,28.93c.47-.38,1.31-1,1.47-1.5a3.05,3.05,0,0,0-.23-2c-.58-.92-2.57-1-3.94-1.44a25.87,25.87,0,0,0-9.06-1,31.87,31.87,0,0,0-5,.73c-2.41.57-5.08,1.12-4.87,3.26.17,1.69,4.19,1.55,6,2.24.33.82-.49.49-1.15,1,0,0,0,.8,0,.84-.47,1.28,6,1.42,7.26,1.42.66,0,1.29,0,1.91-.07a3.44,3.44,0,0,0,.5-.09C213.48,31.34,213.8,30,215.86,30.06Z"/><path class="cls-2" d="M215.86,29.34A6.22,6.22,0,0,0,220,28.21c.47-.39,1.31-1,1.47-1.5a2.42,2.42,0,0,0-.43-1.66c-.59-.92-2.37-1.33-3.74-1.77a25.87,25.87,0,0,0-9.06-1,30.76,30.76,0,0,0-5,.74c-2.41.56-4.16,1.62-4.79,3.17s4.11,1.63,5.94,2.32c.33.82-.49,1.21-1.15,1.71,0,0,0,.08,0,.11-.47,1.29,6,1.43,7.26,1.43.66,0,1.29,0,1.91-.07.18,0,.35-.06.5-.09C213.48,30.61,213.8,29.28,215.86,29.34Z"/><path class="cls-3" d="M219.17,24.7A24.89,24.89,0,0,0,212.39,23a23.43,23.43,0,0,0-4.75-.24A20.15,20.15,0,0,0,201.86,24c-1.1.41-2.26,1-2.43,1.84s1.12,1.7,2.4,1.94c.81.16,1.63.24,2.44.36a1.18,1.18,0,0,1,.52.16c.68.51.62,1-.14,1.8s-1.88.57,1.74.87c1.11.1,2.24.18,3.34.3,3.87.4,2.66-.49,3.86-1.69.57-.56,1-.52,2-.5C219.09,29.09,222.6,26.39,219.17,24.7Z"/><path class="cls-4" d="M203.44,24.9c1.13-1,3.34-1.06,5.11-1.5a15.5,15.5,0,0,0-6.4.89c-2.29.74-2.12,2.84.71,3.05a5,5,0,0,0,.89,0C202.92,26.59,202.58,25.65,203.44,24.9Z"/><path class="cls-4" d="M205.64,27.78s-.08,0,0,0c.61.43.39.81.39,1.33,0,.15.27.11.35,0C206.86,28.67,206.88,27.81,205.64,27.78Z"/><path class="cls-1" d="M4.68,23.93A5.23,5.23,0,0,1,1.2,22.87C.82,22.53.14,22,0,21.55a2.59,2.59,0,0,1,.3-1.71c.55-.77,2.27-.81,3.47-1.15a22.57,22.57,0,0,1,7.85-.64,24.84,24.84,0,0,1,4.28.73c2,.55,4.29,1.08,4,2.92-.24,1.44-3.67,1.24-5.29,1.79-.34.68.39.42.93.87,0,0-.05.67,0,.72.32,1.11-5.27,1.08-6.33,1.05-.56,0-1.11,0-1.63-.08a3.15,3.15,0,0,1-.44-.11C6.66,25.08,6.46,23.92,4.68,23.93Z"/><path class="cls-2" d="M4.74,23.32a5.29,5.29,0,0,1-3.49-1.07C.88,21.9.19,21.33.07,20.92a2.14,2.14,0,0,1,.46-1.4c.57-.78,2.12-1.1,3.33-1.44a22,22,0,0,1,7.83-.65,24.14,24.14,0,0,1,4.3.74c2,.54,3.47,1.49,3.94,2.83s-3.64,1.31-5.26,1.87c-.33.68.36,1,.9,1.49v.09c.32,1.12-5.28,1.09-6.34,1.06-.55,0-1.09-.05-1.63-.09-.15,0-.29-.06-.42-.09C6.69,24.46,6.5,23.3,4.74,23.32Z"/><path class="cls-3" d="M2.14,19.25A22.16,22.16,0,0,1,8.07,17.9a20.7,20.7,0,0,1,4.09-.11A16.63,16.63,0,0,1,17.05,19c.94.38,1.88.9,2,1.63S18,22.06,16.86,22.24c-.69.12-1.41.18-2.1.26a1.51,1.51,0,0,0-.47.12c-.61.43-.61.88,0,1.56s1.6.53-1.55.71c-.94.06-1.93.1-2.87.18-3.34.26-2.26-.47-3.22-1.53C6.2,23,5.8,23.07,5,23.05,2,23-.91,20.63,2.14,19.25Z"/><path class="cls-4" d="M15.65,19.77c-.91-.85-2.83-1-4.29-1.4a13.13,13.13,0,0,1,5.44.91c1.92.67,1.66,2.48-.78,2.6a6.09,6.09,0,0,1-.78,0C16,21.24,16.34,20.44,15.65,19.77Z"/><path class="cls-4" d="M13.59,22.2s.06,0,0,0c-.54.35-.39.69-.42,1.14,0,.13-.24.09-.3,0C12.49,22.94,12.52,22.2,13.59,22.2Z"/><path class="cls-1" d="M111.39,83.15a7.51,7.51,0,0,1-5-1.48c-.56-.5-1.57-1.31-1.72-1.89a3.76,3.76,0,0,1,.38-2.47c.78-1.12,3.26-1.19,5-1.68a32,32,0,0,1,11.27-1,35.55,35.55,0,0,1,6.19,1c3,.75,6.23,1.49,5.84,4.15-.31,2.07-5.27,1.81-7.58,2.63-.46,1,.57.61,1.36,1.25,0,0-.06,1,0,1,.49,1.59-7.57,1.62-9.1,1.59-.79,0-1.58-.06-2.33-.11-.24,0-.44-.09-.63-.14C114.24,84.78,113.93,83.13,111.39,83.15Z"/><path class="cls-2" d="M111.43,82.26a7.63,7.63,0,0,1-5-1.48c-.56-.49-1.55-1.32-1.72-1.9a3,3,0,0,1,.63-2c.77-1.12,3-1.62,4.73-2.11a32,32,0,0,1,11.27-1,35.82,35.82,0,0,1,6.2,1c3,.76,5.05,2.09,5.76,4s-5.21,1.94-7.52,2.76c-.45,1,.54,1.5,1.33,2.14,0,0,0,.08,0,.13.51,1.6-7.55,1.62-9.08,1.6-.8,0-1.58,0-2.35-.11-.24,0-.42-.1-.63-.14C114.31,83.89,114,82.23,111.43,82.26Z"/><path class="cls-3" d="M107.61,76.45a31.07,31.07,0,0,1,8.48-2,29.65,29.65,0,0,1,5.89-.19,24.16,24.16,0,0,1,7.08,1.69c1.35.52,2.74,1.28,2.91,2.32s-1.49,2.08-3.08,2.35c-1,.17-2,.26-3.06.38a1.72,1.72,0,0,0-.64.2c-.88.61-.85,1.26.06,2.22,1,1.16,2.3.77-2.2,1-1.39.1-2.8.17-4.16.29-4.81.41-3.25-.65-4.67-2.17-.67-.72-1.26-.68-2.46-.68C107.43,81.88,103.26,78.46,107.61,76.45Z"/><path class="cls-4" d="M127,77.05c-1.31-1.22-4.06-1.39-6.22-2a19.11,19.11,0,0,1,7.87,1.26c2.78,1,2.46,3.56-1,3.75a6,6,0,0,1-1.13-.06C127.61,79.15,128.08,78,127,77.05Z"/><path class="cls-4" d="M124.16,80.57s.08,0,0,.06c-.76.52-.52,1-.56,1.64,0,.18-.33.13-.45,0C122.59,81.63,122.64,80.58,124.16,80.57Z"/><path class="cls-1" d="M72.94,9.55a7.7,7.7,0,0,1-5.06-1.48c-.53-.5-1.55-1.31-1.7-1.9a3.77,3.77,0,0,1,.39-2.47c.78-1.11,3.25-1.18,5-1.68A32.14,32.14,0,0,1,82.79,1,35.62,35.62,0,0,1,89,2c3,.76,6.22,1.49,5.83,4.15-.3,2.08-5.27,1.81-7.58,2.64-.47,1,.58.6,1.37,1.25,0,0-.05,1-.05,1,.5,1.6-7.55,1.62-9.08,1.59-.81,0-1.57-.06-2.35-.11-.23,0-.42-.09-.62-.14C75.8,11.17,75.48,9.52,72.94,9.55Z"/><path class="cls-2" d="M73,8.65a7.65,7.65,0,0,1-5.06-1.48c-.55-.49-1.55-1.31-1.71-1.9a2.94,2.94,0,0,1,.62-2c.77-1.12,3-1.62,4.75-2.11a31.7,31.7,0,0,1,11.25-1,35.5,35.5,0,0,1,6.2,1c3,.75,5.06,2.11,5.76,4S89.61,7.1,87.29,7.91c-.46,1,.54,1.5,1.33,2.15,0,0,0,.08,0,.12.51,1.62-7.55,1.63-9.08,1.6-.81,0-1.58,0-2.36-.11-.23,0-.42-.09-.62-.14C75.83,10.29,75.53,8.63,73,8.65Z"/><path class="cls-3" d="M69.13,2.85a31,31,0,0,1,8.51-2,29.7,29.7,0,0,1,5.89-.2,24.32,24.32,0,0,1,7.08,1.7c1.35.52,2.73,1.27,2.91,2.32S92,6.72,90.44,7c-1,.18-2,.26-3,.39a2.07,2.07,0,0,0-.66.19c-.87.62-.84,1.27,0,2.23,1.07,1.15,2.33.76-2.19,1-1.38.09-2.78.17-4.16.28-4.8.42-3.25-.65-4.67-2.17-.66-.72-1.26-.67-2.47-.68C69,8.28,64.8,4.86,69.13,2.85Z"/><path class="cls-4" d="M88.6,3.45c-1.35-1.22-4.07-1.41-6.23-2a18.84,18.84,0,0,1,7.87,1.25c2.79.95,2.45,3.56-1,3.76a8.24,8.24,0,0,1-1.11-.06C89.16,5.55,89.63,4.39,88.6,3.45Z"/><path class="cls-4" d="M85.7,7s.09,0,0,.06c-.75.51-.52,1-.55,1.64,0,.19-.34.13-.46,0C84.15,8,84.17,7,85.7,7Z"/><path class="cls-1" d="M208.25,65.9a5.89,5.89,0,0,1-3.93-1.16c-.44-.39-1.23-1-1.35-1.49a3.08,3.08,0,0,1,.31-1.92c.6-.89,2.54-.92,3.88-1.32a25.23,25.23,0,0,1,8.8-.79,27.28,27.28,0,0,1,4.85.79c2.31.6,4.85,1.17,4.55,3.23-.24,1.64-4.11,1.43-5.93,2.07-.36.77.47.48,1.08,1,0,0-.06.76,0,.81.39,1.25-5.89,1.26-7.09,1.24-.62,0-1.24,0-1.83-.08l-.49-.12C210.48,67.17,210.25,65.87,208.25,65.9Z"/><path class="cls-2" d="M208.28,65.2A5.89,5.89,0,0,1,204.35,64c-.44-.38-1.23-1-1.34-1.48a2.29,2.29,0,0,1,.48-1.58c.61-.88,2.36-1.26,3.71-1.65a24.73,24.73,0,0,1,8.79-.8,26.91,26.91,0,0,1,4.83.8c2.33.58,4,1.64,4.52,3.14s-4.06,1.51-5.88,2.15c-.33.78.44,1.18,1,1.68,0,0,0,.06,0,.1.38,1.25-5.9,1.27-7.1,1.25q-.93,0-1.83-.09a4.53,4.53,0,0,1-.49-.11C210.52,66.47,210.29,65.18,208.28,65.2Z"/><path class="cls-3" d="M205.28,60.66a24.43,24.43,0,0,1,6.65-1.58,22.78,22.78,0,0,1,4.6-.15,18.61,18.61,0,0,1,5.52,1.32c1.07.41,2.17,1,2.28,1.81s-1.16,1.62-2.41,1.84c-.79.13-1.58.2-2.37.29a1.53,1.53,0,0,0-.51.16c-.69.48-.65,1,0,1.73.83.91,1.8.6-1.71.83-1.08.07-2.18.13-3.25.23-3.74.32-2.55-.52-3.64-1.7-.52-.57-1-.52-1.92-.52C205.16,64.9,201.89,62.23,205.28,60.66Z"/><path class="cls-4" d="M220.49,61.13c-1-1-3.18-1.09-4.87-1.55a14.88,14.88,0,0,1,6.15,1c2.18.74,1.92,2.78-.81,2.94a5.2,5.2,0,0,1-.88-.06C220.92,62.77,221.28,61.87,220.49,61.13Z"/><path class="cls-4" d="M218.23,63.87s.07,0,0,0c-.59.41-.41.78-.44,1.29,0,.14-.25.1-.34,0C217,64.71,217,63.88,218.23,63.87Z"/></g></g></svg>