<svg xmlns="http://www.w3.org/2000/svg" viewBox="0 0 324.6 119.4"><defs><style>.cls-1{fill:#bd7212;}.cls-2{fill:#a74f28;}.cls-3{fill:#f6d376;}</style></defs><title>Zasób 6</title><g id="Warstwa_2" data-name="Warstwa 2"><g id="Layer_1" data-name="Layer 1"><path class="cls-1" d="M322.85,59.69c0,32.38-71.87,58.62-160.54,58.62S1.75,92.07,1.75,59.69,73.64,1.09,162.31,1.09,322.85,27.34,322.85,59.69Z"/><path class="cls-2" d="M162.31,119.4C72.8,119.4,0,92.62,0,59.69S72.8,0,162.31,0,324.6,26.78,324.6,59.69,251.78,119.4,162.31,119.4Zm0-117.22C74.75,2.18,3.52,28,3.52,59.69s71.23,57.53,158.79,57.53S321.1,91.41,321.1,59.69,249.87,2.18,162.31,2.18Z"/><path class="cls-3" d="M303.55,52.58c0,27.73-63.25,50.21-141.24,50.21S21.05,80.31,21.05,52.58,84.3,2.36,162.31,2.36,303.55,24.84,303.55,52.58Z"/></g></g></svg>