<svg xmlns="http://www.w3.org/2000/svg" viewBox="0 0 268.43 89.67"><defs><style>.cls-1{fill:#9d2b25;}.cls-2{fill:#ca3633;}</style></defs><title>Zasób 1</title><g id="Warstwa_2" data-name="Warstwa 2"><g id="Layer_1" data-name="Layer 1"><path class="cls-1" d="M38.06,37.79c-8.77-1.68-23.78-2.14-32.73,1.43-3.74,1.16-6.32,2.9-5,5.35C3.82,50.92,26,50.35,33.68,48.31,40.7,46.46,50.88,40.25,38.06,37.79Z"/><path class="cls-2" d="M39.12,38.88a37.33,37.33,0,0,0-7.51-1.35,77.86,77.86,0,0,0-10.7-.13c-5.71.41-12.85,1.08-17.7,3.38-6.3,3.74,1.55,6.93,6.53,7.64,7.85,1.11,18.38,1.33,25.81-1.19C40.47,46,46.7,41,39.12,38.88Z"/><path class="cls-1" d="M6.92,41.54c-.68.35-1.23.81-.78,1.35a1.07,1.07,0,0,0,.69.25,4.68,4.68,0,0,0,3.4-.78C11.28,41.11,8,41,6.92,41.54Z"/><path class="cls-1" d="M16.36,40.71c-.37.06-.65.21-.57.52.19.8,1.8.17,2.08-.23C18.34,40.35,16.92,40.31,16.36,40.71Z"/><path class="cls-1" d="M13.62,43.39c-.62.47-1.2,1.4.09,1.72a2.62,2.62,0,0,0,1,0,6.73,6.73,0,0,0,1.77.13c1.3-.09,2.49-.61,2.68-1.47C19.45,42.16,14.68,42.62,13.62,43.39Z"/><path class="cls-1" d="M29,40.24h-.27c-1.07,0-1.33,1.13-.17.86l.28-.05C29.32,41,29.82,40.22,29,40.24Z"/><path class="cls-1" d="M32.43,43.72a9.22,9.22,0,0,0-4.59-.37c-1.25.3-2.25,1.17-1.49,1.89.78,1.25,4.36,1.08,5.87.52C33.28,45.35,33.7,44.14,32.43,43.72Z"/><path class="cls-1" d="M37.12,41.37c-1.2,0-2.38,1.46-.86,1.46C37.46,42.83,38.62,41.37,37.12,41.37Z"/><path class="cls-1" d="M21.42,47.5l0,0h-.1a.69.69,0,0,0-.52.19s-.06,0-.07.07c-.19.19,0,.39.35.3l.14,0C21.87,47.88,21.72,47.53,21.42,47.5Z"/><path class="cls-1" d="M24.11,37.76a1,1,0,0,0-.15-.1,2.35,2.35,0,0,0-2,.08l-.25.1c-.84.35-1.41,1.35-.42,1.67a3,3,0,0,0,2.85-.57C24.47,38.55,24.63,38.14,24.11,37.76Z"/><path class="cls-1" d="M263.33,42.53c-7.29-1.39-19.74-1.77-27.15,1.18-3.12,1-5.26,2.41-4.14,4.45,2.86,5.28,21.25,4.8,27.65,3.11C265.54,49.72,274,44.57,263.33,42.53Z"/><path class="cls-2" d="M264.21,43.43A31.46,31.46,0,0,0,258,42.32a62.58,62.58,0,0,0-8.88-.11c-4.75.33-10.67.9-14.71,2.81-5.22,3.1,1.3,5.75,5.43,6.33,6.52.92,15.26,1.12,21.44-1C265.34,49.35,270.51,45.19,264.21,43.43Z"/><path class="cls-1" d="M237.47,45.64c-.55.29-1,.67-.63,1.12a.8.8,0,0,0,.59.2,3.87,3.87,0,0,0,2.81-.64C241.1,45.3,238.38,45.16,237.47,45.64Z"/><path class="cls-1" d="M245.33,45c-.31,0-.54.17-.49.42.15.67,1.5.14,1.73-.19C247,44.66,245.78,44.62,245.33,45Z"/><path class="cls-1" d="M243.05,47.18c-.52.39-1,1.16.07,1.43a2.7,2.7,0,0,0,.81,0,6.5,6.5,0,0,0,1.46.1c1.08-.08,2.07-.51,2.23-1.23C247.88,46.16,243.91,46.53,243.05,47.18Z"/><path class="cls-1" d="M255.84,44.56h-.22c-.9,0-1.12.94-.15.72l.23,0C256.07,45.16,256.49,44.54,255.84,44.56Z"/><path class="cls-1" d="M258.67,47.46a7.56,7.56,0,0,0-3.81-.32c-1,.26-1.87,1-1.25,1.57.65,1,3.62.9,4.87.43C259.36,48.8,259.71,47.8,258.67,47.46Z"/><path class="cls-1" d="M262.54,45.5c-1,0-2,1.22-.71,1.22C262.83,46.72,263.8,45.5,262.54,45.5Z"/><path class="cls-1" d="M249.52,50.59l0,0h-.08a.64.64,0,0,0-.44.16s0,0,0,.06c-.15.14,0,.31.28.24a.18.18,0,0,1,.1,0C249.89,50.92,249.77,50.62,249.52,50.59Z"/><path class="cls-1" d="M251.76,42.51a.56.56,0,0,0-.14-.09c-.4-.31-1.23-.11-1.63.07l-.22.08c-.69.3-1.18,1.13-.35,1.39a2.52,2.52,0,0,0,2.36-.47C252.05,43.16,252.2,42.81,251.76,42.51Z"/><path class="cls-1" d="M190.41,64.17c-7.29-1.39-19.74-1.78-27.16,1.17-3.11,1-5.24,2.42-4.13,4.45,2.88,5.27,21.25,4.8,27.66,3.11C192.62,71.36,201.06,66.2,190.41,64.17Z"/><path class="cls-2" d="M191.29,65.06A32.2,32.2,0,0,0,185.06,64a62.34,62.34,0,0,0-8.86-.11c-4.77.34-10.68.9-14.73,2.81-5.2,3.1,1.3,5.75,5.44,6.34,6.51.91,15.27,1.11,21.43-1C192.42,71,197.59,66.82,191.29,65.06Z"/><path class="cls-1" d="M164.56,67.27c-.56.29-1,.67-.63,1.12a.85.85,0,0,0,.58.21,3.84,3.84,0,0,0,2.81-.65C168.18,66.92,165.47,66.79,164.56,67.27Z"/><path class="cls-1" d="M172.41,66.58c-.3,0-.54.19-.47.44.15.66,1.48.13,1.71-.19C174,66.29,172.88,66.25,172.41,66.58Z"/><path class="cls-1" d="M170.13,68.81c-.52.39-1,1.16.07,1.43a2.52,2.52,0,0,0,.83,0,5.38,5.38,0,0,0,1.44.11c1.1-.08,2.09-.51,2.23-1.23C175,67.79,171,68.16,170.13,68.81Z"/><path class="cls-1" d="M182.92,66.19h-.22c-.89,0-1.11.94-.14.72l.22,0C183.15,66.79,183.58,66.18,182.92,66.19Z"/><path class="cls-1" d="M185.75,69.08a7.64,7.64,0,0,0-3.81-.31c-1.05.26-1.87,1-1.23,1.58.64,1,3.61.89,4.85.42C186.46,70.44,186.79,69.43,185.75,69.08Z"/><path class="cls-1" d="M189.62,67.12c-1,0-2,1.23-.7,1.23C189.93,68.35,190.88,67.12,189.62,67.12Z"/><path class="cls-1" d="M176.6,72.22l.05,0h-.1a.7.7,0,0,0-.44.17s0,0-.05,0,0,.32.31.25l.1,0C177,72.53,176.87,72.26,176.6,72.22Z"/><path class="cls-1" d="M178.86,64.14a.42.42,0,0,1-.14-.09,2,2,0,0,0-1.65.07l-.21.09c-.7.29-1.18,1.12-.36,1.39a2.5,2.5,0,0,0,2.36-.48C179.12,64.78,179.28,64.45,178.86,64.14Z"/><path class="cls-1" d="M202.52,16.4c-7.29-1.39-19.74-1.78-27.17,1.19-3.09,1-5.23,2.4-4.12,4.45,2.86,5.27,21.26,4.8,27.65,3.1C204.73,23.59,213.17,18.43,202.52,16.4Z"/><path class="cls-2" d="M203.4,17.3a30.75,30.75,0,0,0-6.23-1.11,63.85,63.85,0,0,0-8.86-.12c-4.77.35-10.68.9-14.72,2.81-5.23,3.12,1.29,5.75,5.42,6.34,6.52.92,15.26,1.11,21.42-1C204.51,23.21,209.71,19.05,203.4,17.3Z"/><path class="cls-1" d="M176.67,19.51c-.56.29-1,.67-.62,1.13a.9.9,0,0,0,.57.2,3.92,3.92,0,0,0,2.81-.65C180.29,19.16,177.58,19,176.67,19.51Z"/><path class="cls-1" d="M184.52,18.82c-.3.05-.54.18-.47.44.13.66,1.48.13,1.72-.19C186.15,18.53,185,18.49,184.52,18.82Z"/><path class="cls-1" d="M182.24,21.05c-.52.39-1,1.16.07,1.42a2.25,2.25,0,0,0,.83,0,5.43,5.43,0,0,0,1.45.11c1.09-.08,2.07-.52,2.22-1.23C187.08,20,183.12,20.39,182.24,21.05Z"/><path class="cls-1" d="M195,18.43h-.22c-.89,0-1.11.95-.13.72.06,0,.13,0,.21,0C195.27,19,195.69,18.42,195,18.43Z"/><path class="cls-1" d="M197.86,21.32a7.78,7.78,0,0,0-3.81-.31c-1,.25-1.87,1-1.24,1.57.64,1,3.62.89,4.86.42C198.55,22.67,198.91,21.67,197.86,21.32Z"/><path class="cls-1" d="M201.73,19.36c-1,0-1.95,1.22-.7,1.22C202,20.58,203,19.36,201.73,19.36Z"/><path class="cls-1" d="M188.71,24.45h-.05a.62.62,0,0,0-.44.15s0,0-.05.05,0,.34.31.26l.1,0C189.07,24.78,189,24.49,188.71,24.45Z"/><path class="cls-1" d="M191,16.38l-.13-.1a2,2,0,0,0-1.65.08l-.21.08c-.69.29-1.18,1.13-.35,1.4a2.55,2.55,0,0,0,2.36-.48C191.24,17,191.39,16.7,191,16.38Z"/><path class="cls-1" d="M107.05,79.78C99.76,78.39,87.31,78,79.9,81c-3.12,1-5.25,2.41-4.14,4.45,2.88,5.28,21.25,4.8,27.65,3.11C109.26,87,117.7,81.81,107.05,79.78Z"/><path class="cls-2" d="M108,80.68a32,32,0,0,0-6.24-1.12,62.73,62.73,0,0,0-8.89-.1c-4.74.33-10.66.9-14.69,2.8-5.22,3.1,1.3,5.76,5.42,6.34,6.52.92,15.27,1.12,21.43-1C109.06,86.59,114.23,82.42,108,80.68Z"/><path class="cls-1" d="M81.21,82.89c-.57.29-1,.67-.65,1.11a.83.83,0,0,0,.58.2A3.93,3.93,0,0,0,84,83.57C84.84,82.53,82.11,82.4,81.21,82.89Z"/><path class="cls-1" d="M89.05,82.2c-.3,0-.54.18-.48.43.16.67,1.5.15,1.73-.19C90.68,81.9,89.52,81.87,89.05,82.2Z"/><path class="cls-1" d="M86.77,84.43c-.5.38-1,1.16.07,1.42a2.09,2.09,0,0,0,.83,0,5.5,5.5,0,0,0,1.45.12c1.09-.08,2.08-.51,2.22-1.23C91.61,83.41,87.65,83.78,86.77,84.43Z"/><path class="cls-1" d="M99.56,81.81h-.22c-.88,0-1.1.94-.13.72l.21,0C99.79,82.4,100.23,81.79,99.56,81.81Z"/><path class="cls-1" d="M102.39,84.7a7.53,7.53,0,0,0-3.81-.31c-1,.25-1.85,1-1.23,1.57.64,1,3.61.9,4.86.43C103.08,86.05,103.43,85,102.39,84.7Z"/><path class="cls-1" d="M106.28,82.73c-1,0-2,1.23-.73,1.23C106.55,84,107.52,82.73,106.28,82.73Z"/><path class="cls-1" d="M93.24,87.84l.05,0h-.08a.57.57,0,0,0-.44.15.42.42,0,0,1,0,.07c-.16.15,0,.32.28.25a.24.24,0,0,0,.11,0C93.61,88.15,93.51,87.87,93.24,87.84Z"/><path class="cls-1" d="M95.5,79.76l-.14-.1a2,2,0,0,0-1.65.08l-.2.07c-.71.3-1.2,1.14-.37,1.4a2.54,2.54,0,0,0,2.38-.47C95.77,80.41,95.92,80.06,95.5,79.76Z"/><path class="cls-1" d="M158.07,1.07C150.66-.34,138-.74,130.46,2.27c-3.14,1-5.32,2.45-4.2,4.51,2.93,5.37,21.62,4.89,28.12,3.17C160.31,8.38,168.91,3.13,158.07,1.07Z"/><path class="cls-2" d="M159,2A31.17,31.17,0,0,0,152.65.85a64.73,64.73,0,0,0-9-.11c-4.83.34-10.84.91-15,2.85-5.3,3.16,1.33,5.85,5.53,6.44,6.62.94,15.51,1.13,21.78-1C160.11,8,165.37,3.76,159,2Z"/><path class="cls-1" d="M131.79,4.22c-.55.3-1,.69-.63,1.14a.78.78,0,0,0,.57.21,4,4,0,0,0,2.88-.65C135.49,3.88,132.72,3.73,131.79,4.22Z"/><path class="cls-1" d="M139.76,3.52c-.3,0-.53.19-.46.45.15.66,1.51.13,1.74-.2C141.43,3.22,140.25,3.18,139.76,3.52Z"/><path class="cls-1" d="M137.47,5.79c-.53.39-1,1.17.05,1.44a2.39,2.39,0,0,0,.85,0,6.18,6.18,0,0,0,1.48.11c1.1-.09,2.1-.52,2.26-1.25C142.37,4.75,138.35,5.13,137.47,5.79Z"/><path class="cls-1" d="M150.46,3.12h-.22c-.91,0-1.11,1-.15.74l.23-.06C150.71,3.73,151.13,3.11,150.46,3.12Z"/><path class="cls-1" d="M153.34,6.06a7.9,7.9,0,0,0-3.87-.31c-1.05.25-1.91,1-1.27,1.59.66,1.06,3.69.92,4.93.44C154.05,7.44,154.4,6.41,153.34,6.06Z"/><path class="cls-1" d="M157.3,4.08c-1,0-2,1.24-.74,1.24C157.57,5.32,158.56,4.08,157.3,4.08Z"/><path class="cls-1" d="M144,9.27s0,0,0,0H144a.61.61,0,0,0-.44.16.34.34,0,0,0-.06.06c-.16.15,0,.33.32.25l.08,0C144.41,9.58,144.31,9.29,144,9.27Z"/><path class="cls-1" d="M146.32,1.05a.43.43,0,0,1-.12-.11,2.08,2.08,0,0,0-1.69.08l-.21.09c-.71.29-1.2,1.15-.36,1.41A2.61,2.61,0,0,0,146.35,2C146.6,1.7,146.76,1.36,146.32,1.05Z"/></g></g></svg>