<svg xmlns="http://www.w3.org/2000/svg" width="1384.5" height="821.9"><switch><g><g fill="#fff"><path d="M764.4 246.8c1.3-1.2 2.4-2.5 3.3-3.9 1.2-1.9 1.8-4 1.8-6.3 0-3.6-1.3-6.7-3.7-9.1-3.2-3.1-6.9-4.7-12-2.8-1 .3-1.9.7-3.1 1.4-9.1 6.6-16.4 14.3-21.7 22.8-5.3 8.4-9.3 17.5-12.1 26.9-2.8 9.3-4.6 19-5.3 28.7-.8 9.6-1.1 18.9-1.1 27.8v25.1c0 14.7-1 28.7-2.8 41.7-1.8 12.7-5.3 23.8-10.3 33.2-4.8 9.1-11.6 16.3-20 21.6-8.4 5.2-19.6 7.8-33.2 7.8-11.8 0-22.5-2.7-31.8-8.1-9.3-5.4-17.9-13.8-25.4-24.9-1.1-1.5-2.4-2.8-4-3.9-4.9-3.4-11.6-2.3-15.2 2-2.1 2.4-3.2 5.3-3.2 8.4 0 1.2.2 2.5.6 3.7.3 1 .7 1.8 1.2 2.8 4.1 6.9 8.9 13.3 14.6 18.8 5.7 5.5 11.9 10.3 18.6 14.1 6.7 3.8 13.9 6.8 21.4 8.8 7.6 2 15.3 3 23.2 3 17.4 0 32.1-3.6 43.7-10.5 11.7-6.9 21-16.4 28-28.1 6.8-11.5 11.7-25 14.5-40.3 2.8-14.9 4.2-30.8 4.2-47.4v-24.8c0-9.3.3-18.3 1-26.8.7-8.4 2.1-16.3 4.2-23.6 2-7.2 5-14.1 8.9-20.3 3.7-6.4 9-12.3 15.7-17.8z"/><path d="M553.2 362.7c6.8 6.7 15 11.9 24.1 15.4 9 3.5 18.7 5.3 28.6 5.3 10.6 0 20.3-1.3 28.7-3.8 8.2-2.4 15.3-5.3 21.2-8.4 5.9-3.2 10.3-6 13.6-8.8 3.1-2.7 4.8-4.2 4.8-4.2 2.6-2.3 4-5.4 4-9.1 0-3.2-1.2-6.3-3.5-8.7-4.8-5-12.7-4.8-17-.3-.4.3-1.6 1.4-3.8 3.2-2.2 1.8-5.5 3.8-9.8 6-4.3 2.2-9.8 4.3-16.3 6.2-11.4 3.3-27.5 4.3-41.2-.5-6-2.1-11.4-5.4-16-9.7-4.6-4.3-8.4-9.7-11.2-16.2-2.8-6.4-4.3-14.1-4.3-22.8 0-10 2.1-19.9 6.3-29.2 4.2-9.6 10.2-18.6 17.8-27 7.7-8.5 17.1-16.4 27.9-23.5 10.9-7.2 23.1-13.3 36.4-18.5 13.3-5.1 27.8-9.2 43-12 31.2-5.8 66.9-6 94.7 1.5 14.1 3.8 26.3 9.3 36.4 16.6 9.9 7.1 17.8 16 23.3 26.3s8.3 22.2 8.3 35.5c0 13.1-2.4 24.9-7.2 34.9-4.8 10.1-11.5 18.7-20 25.6-8.6 7-19.2 12.4-31.5 16-12.4 3.7-26.3 5.5-41.4 5.5-3.4 0-6.4 1.3-8.7 3.7-2.3 2.4-3.5 5.3-3.5 8.6 0 5.1 2.3 8 4.2 9.6 2.5 2 5.4 3 8.7 3 18 0 34.7-2.4 49.6-7.3 15.1-4.8 28.3-11.9 39.1-21.1 11-9.2 19.6-20.5 25.6-33.8 6-13.2 9-28.3 9-44.8 0-17.1-3.5-32.5-10.4-46s-16.7-25.1-29.2-34.4c-12.3-9.3-27.2-16.5-44.2-21.3-32.3-9.3-73.2-9.2-109-2.4-17 3.3-33.2 7.9-48.1 13.9-14.9 5.9-28.7 13.2-41 21.6-12.3 8.4-23.1 17.9-32 28.1-8.9 10.3-16 21.5-21 33.3-5 11.9-7.6 24.5-7.6 37.4 0 11.8 2.1 22.6 6.1 32.1 4.1 9.6 9.7 17.8 16.5 24.5zM878.5 332.1c4.2 4.5 9.5 6.8 15.7 6.8 6.1 0 11.4-2.3 15.7-6.8 4.2-4.4 6.3-9.9 6.3-16.2 0-3.2-.6-6.2-1.7-8.9-1.1-2.8-2.6-5.2-4.6-7.3-2-2.1-4.3-3.8-7-5-5.4-2.5-12-2.5-17.4 0-2.7 1.2-5 2.8-7 5-2.1 2.1-3.6 4.6-4.7 7.3-1.1 2.8-1.7 5.8-1.7 8.9 0 6.3 2.2 11.8 6.4 16.2zM1381.4 404.6c-3.7-4.7-10.7-5.7-15.7-2.3-2.1 1.3-3.6 3.2-4.6 5.5-1.1 2.5-2.5 5.4-4.1 8.8-1.6 3.3-3.4 6.7-5.4 10.3-2 3.5-4.3 7-6.7 10.5-2.3 3.3-4.8 6.4-7.5 9-2.5 2.5-5 4.5-7.5 6-5.2 3.1-10.3 2.3-13.1-1.2-2.2-2.8-3.9-6.1-5-9.9-1.2-4.1-2-8.3-2.3-12.5-.4-4.5-.6-7.9-.8-10.5-.2-3-1.3-5.7-3.4-7.9-4.5-5-12-4.9-16.6-.7-2.2 2-3.6 4.7-4 7.7-.8 6.3-2.2 11.8-4.2 16.4-2 4.6-4.2 8.3-6.5 11.3-2.3 2.7-4.6 4.7-6.8 6-2.7 1.4-4.4 1.7-5.4 1.7-2.1 0-3.8-.4-5.2-1.2-1.4-.9-2.5-2-3.4-3.4-.9-1.6-1.6-3.4-2-5.4-.5-2.2-.7-4.5-.7-6.6 0-7.4 1.1-13.7 3.3-18.9 2.2-5.3 4.9-9.7 8.1-13.1 3.1-3.3 6.5-5.8 10.2-7.4 6.2-2.7 11.9-2.8 15.9-1.7 1.7.5 3.2 1.1 4.3 1.7 1.4.8 2.3 1.4 2.7 1.7.6.5 1 .9 1.2 1.1 4.6 4.9 12.5 5.1 17.3-.2 2.2-2.4 3.3-5.4 3.3-8.6 0-3-1-5.9-3.5-8.9-.1-.1-.8-.8-2.3-2.1-1.5-1.4-3.6-2.8-6.2-4.3-2.5-1.5-5.6-2.8-9.1-4-9.2-3.2-20.6-2.5-32.1 2.4-6.7 2.9-13 7.3-18.5 13-4.1 4.2-7.5 9.5-10.5 15.3h-.1c-2 1.3-3.5 3.1-4.6 5.5-2.1 5-5.1 10.4-8.8 16.1-3.8 5.9-8.1 11.9-12.7 18-4.7 6.1-9.6 12.2-14.6 18.2-2.6 3.1-5.2 6.1-7.7 9 0-.2-.1-.4-.1-.6-.8-4.1-2-8.2-3.5-12-1.6-3.9-3.7-7.6-6-10.8-1.5-1.9-3.1-3.6-4.9-5 1.6-2.1 3.2-4.3 4.7-6.4 2.8-3.9 5.2-8 7.3-12.2 2.1-4.3 3.8-8.8 5.1-13.3 1.3-4.7 2-9.7 2-14.7 0-6.1-1-11.7-3-16.6-2-4.9-4.7-9.1-8.2-12.5-3.4-3.4-7.5-6.1-12-7.9-15.4-6.2-32.6-1.8-47.5 11.8-9.9 9.2-18.8 22.1-26.2 38.2-.2.4-.6.5-.8.9-2.1 5-5.1 10.4-8.8 16.1-3.9 5.9-8.1 11.9-12.7 18-4.7 6.1-9.5 12.2-14.6 18.2-2.6 3.1-5.2 6.1-7.7 9-.1-.2-.1-.4-.1-.6-.8-4.1-2-8.2-3.5-12-1.6-3.9-3.7-7.6-6.1-10.8-1.4-1.9-3.1-3.6-4.9-5 1.6-2.1 3.2-4.3 4.8-6.4 2.7-3.9 5.2-8 7.3-12.2 2.1-4.3 3.8-8.8 5.1-13.3 1.3-4.7 2-9.7 2-14.7 0-6.1-1-11.7-3-16.6-2-4.9-4.7-9.1-8.2-12.5-3.5-3.4-7.5-6.1-12.1-7.9-15.3-6.2-32.7-1.8-47.5 11.8-9.8 9-18.5 21.8-25.9 37.6-.2.3-.6.6-.8.9-3.8 8-7.7 15.3-11.5 21.8-3.8 6.4-7.7 11.9-11.4 16.4-3.6 4.3-7.2 7.8-10.5 10.2-4.7 3.3-8.4 3.7-12.9 2.1-1.4-.5-2.9-1.6-4.3-3.3-1.6-1.8-2.9-4.6-4-8.2-1.2-3.8-1.7-9-1.7-15.4 0-5.1.1-10.6.5-16.6.3-6.1.7-11.8 1.1-17.2l1.1-14.1c.3-4.2.4-6.7.4-7.5 0-3.2-1-6-3-8.4-4.5-5.5-12.8-5.3-17.4-.5-2 2.2-3.2 4.7-3.6 7.7-2.3 18.9-3.4 38.2-3.4 57.3 0 7 .8 13.6 2.3 19.7 1.6 6.3 4 11.9 7.3 16.6 3.3 4.8 7.5 8.7 12.3 11.5 5 2.9 10.8 4.5 17.3 4.5 5.2 0 10.3-1.3 15.3-4 4.6-2.4 9-5.7 13.2-9.6 4.1-3.8 7.9-8.1 11.5-12.9 3.5-4.7 6.7-9.4 9.7-14.1 2.9-4.7 5.5-9.3 7.8-13.8 2.2-4.3 4-7.8 5.4-10.7.2-.3.5-.5.7-.8 5.7-12.4 12.1-22.2 19.1-29.1 10.7-10.6 22.1-12.3 28.5-5.8 2.5 2.6 3.8 6.1 3.8 10.7 0 5.9-2.1 12.4-6.2 19.4-4.2 7.2-10.1 15.2-17.6 23.8-4.2 1-7.8 2.5-10.9 4.3-3.5 2-6.4 4.3-8.5 6.7-2.3 2.4-3.9 4.9-4.9 7.2-1.1 2.5-1.7 4.7-1.7 6.6 0 6.5 2.8 9.7 5.2 11.3 2.7 1.8 5.7 2.7 8.8 2.7.8 0 2.2-.1 3.9-.5 1.8-.3 3.8-1.2 6.2-2.5 2.1-1.2 4.5-2.9 7-5.1 2.2-1.9 4.6-4.3 7.2-7.4.6 0 1.3.1 2.1 1.2 1.3 1.5 2.4 3.8 3.5 6.6 1.1 3.3 2.1 7.3 2.8 11.8.7 4.2 1.3 8.6 1.7 13.3-9.3 11-17.3 21.8-23.8 32-6.8 10.8-12.4 21.3-16.6 31.2-4.3 10.1-7.3 19.8-9.1 29-1.9 9.1-2.8 18.1-2.8 26.4 0 5.8.7 11.3 2.2 16.1 1.5 4.9 3.6 9.2 6.2 12.8 2.7 3.8 6 6.7 9.8 8.8 3.8 2.2 8 3.2 12.3 3.2 8.3 0 15.7-3.2 22-9.6 5.8-5.8 10.7-14.1 14.6-24.4 3.7-9.9 6.6-21.9 8.5-35.6 1.9-13.4 2.8-28.4 2.8-44.6 0-14.3-.3-26.2-1-36.4 4.7-5 9.8-10.7 15.4-17.1 6.2-7.1 12.3-14.5 18.1-22 5.8-7.6 11.4-15.3 16.4-23 4.8-7.3 8.3-14.1 11.2-20.6.2-.4.7-.6.9-1.1 5.7-12.4 12.1-22.2 19.1-29.1 10.7-10.6 22.1-12.3 28.5-5.8 2.5 2.6 3.8 6.1 3.8 10.7 0 5.9-2.1 12.4-6.2 19.4-4.2 7.2-10.1 15.2-17.6 23.8-4.2 1-7.8 2.5-10.9 4.3-3.5 2-6.4 4.3-8.6 6.7-2.2 2.4-3.9 4.9-4.9 7.2-1.1 2.5-1.7 4.7-1.7 6.6 0 6.5 2.8 9.7 5.2 11.3 2.8 1.8 5.7 2.7 8.8 2.7.9 0 2.2-.1 3.9-.5 1.8-.3 3.8-1.2 6.2-2.5 2.1-1.2 4.5-2.9 7-5.1 2.2-1.9 4.6-4.3 7.2-7.4.6 0 1.3.1 2.1 1.2 1.3 1.5 2.4 3.8 3.5 6.6 1.1 3.3 2.1 7.3 2.8 11.8.7 4.2 1.3 8.6 1.7 13.3-9.3 11-17.3 21.8-23.8 32-6.8 10.8-12.4 21.3-16.6 31.2-4.3 10.1-7.3 19.8-9.2 29-1.9 9.1-2.8 18.1-2.8 26.4 0 5.8.7 11.3 2.2 16.1 1.5 4.9 3.6 9.2 6.2 12.8 2.7 3.8 6 6.7 9.8 8.8 3.8 2.2 8 3.2 12.3 3.2 8.3 0 15.7-3.2 22.1-9.6 5.8-5.8 10.7-14.1 14.6-24.4 3.7-9.9 6.6-21.9 8.5-35.6 1.9-13.4 2.8-28.4 2.8-44.6 0-14.3-.3-26.2-.9-36.4 4.7-5 9.8-10.7 15.3-17.1 6.2-7.1 12.3-14.5 18.1-22 2.1-2.7 3.8-5.4 5.8-8.1 1.6 4.2 3.5 8.1 6.1 11.3 3.1 3.8 6.8 6.8 11.3 8.9 10.1 4.8 23.4 4.5 35.2-4.5 4-3 7.7-6.8 11-11.1 2.2 4.2 4.9 7.9 8.2 11.1 5.9 5.8 13.3 8.8 21.8 8.8 6 0 11.7-1.5 17-4.5 5-2.8 9.7-6.3 13.9-10.6 4.2-4.1 8-8.8 11.4-13.8 3.3-4.9 6.2-9.5 8.7-14 2.5-4.4 4.5-8.4 6.2-11.9 1.6-3.3 2.5-5.5 3.2-6.9.6-1.5.9-3.1.9-4.6-.3-3.6-1.3-6.4-3.4-9zm-353 171.8c-1.3 10.8-3.2 20.3-5.6 28.3-2.3 7.6-5.1 13.7-8.3 17.9-3.8 5.1-6.8 5.1-7.8 5.1-1.3 0-2.5-1.2-3.8-3.5-1.8-3.3-2.7-7.9-2.7-13.8 0-5.3.6-11.3 1.8-17.8 1.2-6.4 3.3-13.5 6.2-21.1 2.9-7.6 6.9-15.8 11.9-24.6 2.9-5.1 6.3-10.5 10.2-16.1.1 3.7.1 7 .1 10.1 0 12.6-.7 24.6-2 35.5zm136.9 0c-1.3 10.8-3.2 20.3-5.6 28.3-2.3 7.6-5.1 13.7-8.3 17.9-3.8 5.1-6.8 5.1-7.8 5.1-1.3 0-2.5-1.2-3.8-3.5-1.8-3.3-2.8-7.9-2.8-13.8 0-5.3.6-11.3 1.8-17.8 1.2-6.4 3.3-13.5 6.2-21.1 2.9-7.6 6.9-15.8 11.9-24.6 2.9-5.1 6.3-10.5 10.2-16.1.1 3.7.1 7 .1 10.1.2 12.6-.5 24.6-1.9 35.5zM1099 739c-2 1.1-3.5 2.8-4.6 4.9-2.1 4.3-4.7 9.3-7.8 15-3 5.4-6.4 10.8-10.3 15.8-3.7 4.8-7.8 9-12.2 12.4-3.8 3-7.8 4.4-12 4.4-1.2 0-2.6-.3-4.2-.8-1.4-.5-2.7-1.4-4-2.7-1.4-1.4-2.6-3.3-3.6-5.7-1-2.5-1.5-5.8-1.5-9.9 0-3.1.2-6.3.5-9.6s.8-6.8 1.3-10.2c.5-3.5.9-7 1.3-10.3.4-3.5.6-6.8.6-10.1 0-9-2.4-15.7-7.3-20-5.7-5.1-14.4-6.4-25.6-6.1h-1.2c-.1-1.5-.3-3.1-.5-4.8-.4-3.9-1.3-7.6-2.3-11-1.2-3.8-2.9-7.2-5.1-9.8-5.2-6.5-14.7-7.6-22.1.4-2.8 3-5.3 6.6-7.5 10.6-2.1 4-3.8 8.1-5.1 12.2-1.3 4.4-2 7.8-2 10.6 0 4.1.9 7.5 2.8 10.1 1.8 2.5 4.2 4.3 6.9 5.5 2.4 1 5.1 1.6 7.9 1.8h.7c-.6 2.8-1.1 5-1.5 6.7-.6 2.1-1.1 3.5-1.5 4.6-.1.2-.3.2-.3.3-1.9 4.2-3.9 7.8-5.9 10.8-1.9 2.8-3.9 5.1-6.3 6.8-2.2 1.8-4.8 3.1-7.6 4-2.5.8-5.3 1.2-8.5 1.3.4-2.8.6-5.7.6-8.4 0-8.3-.7-15.7-2.2-21.9-1.5-6.3-3.6-11.6-6.1-15.7-2.8-4.3-6-7.7-9.8-9.8-10.1-5.8-22.7-3.6-29.6 6-.5.7-.9 1.3-1.3 2-.3-.5-.7-.9-1.1-1.4-2.2-2.5-7.2-6.4-19.3.2-4.3 2.3-8.4 5.8-12.5 10.3-2.7 3-4.9 7.3-7.2 11.3-2.3 1.3-4.2 3.3-5.4 6.2-1.2 3.2-3.1 7.4-5.8 12.6-2.7 5.2-5.8 10.4-9.3 15.6-3.5 5-7.2 9.3-11.2 13-6.3 5.6-12 5.5-17.1 2-2.8-1.9-5.4-4.6-7.8-8-2.6-3.6-4.9-7.8-7-12.7-1.8-4.3-3.5-8.9-4.9-13.9 1.8-2.8 3.7-6.3 5.8-10.8 2.5-5.4 5.1-12 7.7-19.3 2.6-7.3 5.1-15.3 7.6-23.9 2.4-8.6 4.7-17.6 6.6-26.7 2-9.2 3.6-18.4 4.7-27.6 1-8.2 1.6-16 1.7-23.4H917c3.3 0 6.2-1.1 8.4-3.2 2.4-2.2 3.7-5.2 3.7-8.8 0-3.5-1.3-6.5-3.7-8.8-2.3-2.1-5.2-3.2-8.4-3.2h-90.8c-.5-3.3-1.1-6.3-1.7-9.1-1-4.4-2.5-8.3-4.3-11.5-1.9-3.6-4.4-6.4-7.3-8.5-6.4-4.5-15.6-4.5-22.6-.2-3.3 2-6.1 4.7-8.7 8.1-2.4 3.2-4.6 7-6.4 11.3-1.3 3.1-2.5 6.4-3.5 9.9h-66.2c-3.3 0-6.2 1.1-8.4 3.2-2.4 2.2-3.7 5.3-3.7 8.8 0 3.5 1.3 6.6 3.7 8.8 2.3 2.1 5.2 3.2 8.4 3.2h60.9c-.8 4.8-1.4 9.7-2 14.6-.8 7-1.3 13.8-1.7 20.4-.4 6.6-.7 12.8-.8 18.8-.1 5.9-.2 11-.2 15.4 0 17.5 1.3 34 3.8 48.8.5 2.5 1.1 4.7 1.6 7.1-.9 1.9-1.7 3.8-2.9 6.2-1.6 3.3-3.4 6.8-5.4 10.3-2 3.5-4.3 7-6.8 10.5-2.3 3.3-4.8 6.4-7.4 9-2.5 2.5-5 4.5-7.6 6-5.3 3.1-10.3 2.3-13.1-1.2-2.2-2.8-3.8-6.1-5-9.9-1.2-4.1-2-8.3-2.3-12.5-.4-4.5-.6-7.9-.8-10.5-.2-3-1.4-5.7-3.4-7.9-4.5-5-12-4.9-16.6-.7-2.2 2-3.6 4.7-4 7.7-.8 6.3-2.2 11.8-4.2 16.4-2 4.6-4.2 8.3-6.6 11.3-2.2 2.7-4.5 4.7-6.8 6-2.7 1.4-4.4 1.7-5.3 1.7-2.1 0-3.9-.4-5.2-1.2-1.4-.9-2.5-2-3.4-3.4-.9-1.6-1.6-3.4-2-5.4-.5-2.2-.7-4.5-.7-6.6 0-7.4 1.1-13.7 3.2-18.9 2.2-5.3 4.9-9.7 8.1-13.1 3.1-3.3 6.5-5.8 10.2-7.3 6.2-2.7 11.9-2.8 15.9-1.7 1.7.5 3.2 1.1 4.3 1.7 1.5.8 2.3 1.3 2.7 1.7.6.5 1.1.9 1.3 1.1 4.6 4.8 12.6 5.1 17.3-.2 2.2-2.4 3.3-5.4 3.3-8.6 0-3-1-5.9-3.5-8.9-.1-.2-.8-.8-2.2-2.1-1.6-1.4-3.6-2.8-6.2-4.3-2.6-1.4-5.6-2.8-9.2-4-9.2-3.2-20.6-2.5-32.1 2.4-6.8 2.8-13 7.3-18.5 13-4.1 4.2-7.4 9.4-10.4 15.1-.1.1-.2 0-.2.1-2 1.3-3.5 3.1-4.5 5.5-2.6 6-5.4 12.1-8.6 18.2-3.1 5.8-6.6 11.3-10.4 15.9-3.7 4.6-7.9 8.3-12.4 11.1-8.3 5.2-19.8 4.8-26.5 1.1-1.8-1-3.3-2.1-4.7-3.4 3.1-1.9 6.1-4 9-6.3 4.5-3.7 8.5-7.8 11.8-12.2 3.3-4.4 5.9-9.3 7.8-14.5 1.9-5.3 2.9-11 2.9-17 0-4.8-.8-9.3-2.4-13.2-1.6-3.8-3.8-7.2-6.4-10-2.7-2.8-5.8-4.9-9.1-6.4-8.9-4.1-18.6-2.6-26.4 1.9-4.7 2.7-8.7 6.6-12 11.3-3.3 4.7-5.8 10.2-7.4 16.3-.4 1.5-.3 3.3-.6 4.8-.5.6-1.2 1-1.6 1.7-2.1 4.3-4.7 9.3-7.8 15-3 5.4-6.4 10.8-10.3 15.8-3.7 4.8-7.8 9-12.1 12.4-3.8 3-7.8 4.4-12 4.4-1.2 0-2.6-.3-4.1-.8-1.4-.5-2.8-1.4-4.1-2.7-1.4-1.4-2.5-3.3-3.5-5.7-1-2.5-1.5-5.8-1.5-9.9 0-3.1.2-6.3.5-9.6.4-3.3.8-6.8 1.3-10.2.5-3.5.9-7 1.3-10.3.4-3.5.6-6.8.6-10.1 0-9-2.5-15.7-7.3-20-5.7-5.1-14.4-6.4-25.6-6.1h-1.2c-.1-1.5-.3-3.1-.5-4.8-.5-3.9-1.3-7.6-2.3-11-1.2-3.8-2.9-7.2-5.1-9.8-5.2-6.5-14.8-7.6-22.1.4-2.8 3-5.3 6.6-7.5 10.6-2.1 4-3.8 8.1-5.1 12.2-1.3 4.4-2 7.8-2 10.6 0 2.9 1.1 5.1 2.1 7.3-3.6-3.6-9.3-4.7-14.1-2.2-2 1.1-3.6 2.7-4.6 4.5-5.1 8.7-12.1 17.4-20.8 26-8.8 8.7-18.9 16.6-30.3 23.5-11.3 6.9-23.9 12.6-37.2 16.8-23.3 7.4-49 8-74.3 3.4-10.9-2-21.5-5.1-31.5-9.2s-19.4-9.4-28-15.7c-8.6-6.3-16.1-13.8-22.5-22.3-6.3-8.5-11.4-18.4-15-29.5-3.6-11-5.4-23.6-5.4-37.3 0-15.2 2.3-29.3 6.7-41.9 4.4-12.7 10.5-24.4 18-34.7 7.5-10.3 16.4-19.4 26.3-27.1 10-7.8 20.7-14.3 31.8-19.6 11-5.3 22.3-9.2 33.7-11.8 26.3-6.1 50.2-4.7 71.2.8 11.9 3.2 22.4 7.6 31.3 13.3 8.7 5.6 15.6 12.4 20.7 20.2 4.9 7.6 7.4 16.2 7.4 25.4 0 8.5-2 16.8-6 24.6-4 8-9.7 15.1-16.7 21.2-7.1 6.2-15.6 11.2-25.1 14.9-14.5 5.7-31.5 7.3-48.2 3.6-5.6-1.3-10.8-3.3-15.3-6.2-4.4-2.8-8-6.5-10.8-10.9-2.7-4.3-4-9.8-4-16.3 0-4.2.6-8 1.8-11.3 1.3-3.6 2.8-6.7 4.3-9.2 1.6-2.5 3-4.5 4.3-6 1-1 1.5-1.8 1.3-1.6l1.2-.9c2.6-2.6 3.9-5.8 3.9-9.5 0-3.5-1.3-6.5-3.6-8.8-3.1-3-7.5-4.1-12-3-1.8.4-3.3 1.3-5.2 3.2l-2.9 3.2c-2.3 2.4-4.7 5.7-7.2 9.8-2.4 4.1-4.7 9-6.8 14.7-2.1 5.9-3.2 12.4-3.2 19.4 0 8.4 1.6 16.4 4.7 23.7 3.2 7.4 7.8 13.9 13.9 19.3 6.1 5.5 13.7 9.7 22.6 12.8 8.8 3 19 4.5 30.3 4.5 14 0 27.4-2.4 39.8-7.3 12.4-4.8 23.3-11.4 32.6-19.7 9.3-8.3 16.8-18.1 22.2-29.1 5.4-11.1 8.2-23 8.2-35.3 0-13.3-3.3-25.7-9.9-36.7-6.5-10.8-15.4-20.1-26.5-27.8-11-7.6-23.9-13.5-38.5-17.7-27.6-7.9-60.5-8.4-90.5-.8-14.2 3.7-28 8.9-40.8 15.8-12.9 6.8-24.9 15.2-35.7 24.8-10.8 9.7-20.3 20.8-28.2 32.9-7.9 12.2-14.2 25.5-18.6 39.7-4.4 14.2-6.7 29.5-6.7 45.3 0 16.3 2.2 31.3 6.5 44.6s10.3 25.4 17.9 35.9c7.6 10.5 16.7 19.8 26.9 27.4 10.2 7.7 21.3 14.1 33.1 19.1 11.8 5 24.2 8.7 37 11.2 12.7 2.4 25.7 3.7 38.5 3.7 16.5 0 32.7-2.5 48.1-7.4 15.4-4.9 29.8-11.5 42.8-19.5 13-8 24.8-17.2 34.9-27.2 10.2-10 18.4-20.4 24.5-30.8.7-1.1 1.1-2.3 1.4-3.6.2-.9.2-1.9.2-2.8 0-1.8-1.1-3.3-1.8-5 1.7 1.9 3.4 3.6 5.8 4.6 2.4 1 5.1 1.6 7.9 1.8h.7c-.6 2.8-1.1 5-1.5 6.7-.7 2.5-1.2 4.3-1.7 5.3-.3.8-.6 1.3-.7 1.6-.8 1.3-1.2 2.7-1.2 4.5 0 3.5 1.3 6.6 3.9 9 6.4 5.9 16 3.5 19.3-3.9.4-.7.8-1.7 1.2-3 .5-1.5 1.1-3.4 1.8-5.9.7-2.4 1.4-5.1 2.2-8.3.5-2 .9-4.1 1.3-6.3h8c2 0 3.1.3 3.2.2.1.3.3.9.3 2.3 0 5.5-.6 11.5-1.8 17.7-1.3 6.8-1.9 13.7-1.9 20.6 0 6.8 1 13 2.9 18.3 2 5.5 4.7 10.3 8 14.1 3.4 3.9 7.4 6.9 12.1 9 4.6 2.1 9.6 3.1 14.7 3.1 8.2 0 15.8-2.3 22.7-7 6.4-4.3 12.3-9.7 17.4-15.9 2.6-3.1 4.6-6.8 6.9-10.2 1.9 5.3 3.9 10.5 7.1 14.9 4.3 5.9 9.8 10.8 16.3 14.5 6.7 3.8 14.7 5.7 23.7 5.7h.1c14.1-.3 26.8-6.1 37.8-17.1 2.5-2.5 5-5.4 7.5-8.5 1.5 3.5 3 7.1 5.3 9.8 3.1 3.8 6.9 6.8 11.3 8.9 10.1 4.8 23.3 4.5 35.2-4.5 4-3 7.7-6.8 11-11.1 2.2 4.2 4.9 7.9 8.2 11.1 5.9 5.8 13.2 8.8 21.8 8.8 5.9 0 11.7-1.5 17-4.5 5-2.8 9.7-6.3 13.9-10.6 4.2-4.1 8-8.8 11.4-13.8 1.8-2.5 3.1-4.9 4.6-7.3 5 10.9 11.1 19.7 18.3 25.9 7.8 6.7 16.7 10.1 26.4 10.1 5.7 0 11.3-1.6 16.4-4.7 4.7-2.8 9.1-6.5 13.2-10.7 2.6-2.8 4.9-6.1 7.2-9.3 2.1 4.7 4.4 9.3 7.7 12.8 4.1 4.3 8.9 7.8 14.3 10.3 5.4 2.5 11.5 3.7 18.1 3.7 5.4 0 10.7-.9 15.4-2.4 4.7-1.7 9-3.8 12.8-6.7 3.8-2.8 7.2-6.1 10-9.8 2.1-2.7 3.9-5.5 5.6-8.5 1.7.2 3.4.3 5.2.3h1.5c5.8 0 11.3-.8 16.1-2.4 5.2-1.7 9.9-4.1 14.1-7.1 4.2-3 7.8-6.5 10.9-10.5 2.9-3.8 5.6-7.8 7.9-12.3.5-1.1 1.1-2.4 1.6-3.7v-.1c.4-.7.8-1.7 1.3-3 .5-1.5 1.1-3.4 1.8-5.9.7-2.4 1.4-5.1 2.2-8.3.5-2 .9-4.1 1.3-6.3h8c2 0 3 .3 3.2.2.2.3.3.9.3 2.3 0 5.5-.6 11.5-1.8 17.7-1.3 6.8-1.9 13.7-1.9 20.6 0 6.8.9 13 2.9 18.3 1.9 5.5 4.6 10.3 7.9 14.1 3.4 3.9 7.5 6.9 12.1 9 4.6 2.1 9.5 3.1 14.7 3.1 8.2 0 15.8-2.3 22.7-7 6.4-4.3 12.2-9.7 17.3-15.9 5-6.1 9.5-12.8 13.5-19.8 3.8-6.8 7.1-12.9 10.1-18.6.8-1.7 1.2-3.7 1.2-5.7 0-3-1-5.8-3-8.3-3.4-3.6-9.9-4.9-15.1-1.8zm-534 26.5c-.1-.2-.1-.4-.1-.7-.4-2.3-.6-4.5-.6-6.6 0-3.5.3-7.1 1-10.7.6-3.4 1.5-6.5 2.8-9.3 1.2-2.5 2.7-4.5 4.4-6 1.4-1.2 3.2-1.8 5.3-1.8.7 0 1.7.1 2.8 1.4 1.2 1.4 1.5 3.8 1.5 5.6 0 3-.6 5.9-1.6 8.9s-2.6 5.9-4.6 8.7c-2 2.8-4.4 5.4-7.2 7.7-1.1 1.1-2.4 2-3.7 2.8zm221.6-53.4c-.3-5.8-.5-12.8-.5-20.8 0-17 .5-31.6 1.6-43.5.9-9.9 2-18.5 3.3-25.7h12.7c-.2 6.7-.8 13.9-1.7 21.6-1.2 9.7-2.8 19.7-5 29.8-2.2 10.2-4.8 20.3-7.7 30.1-.8 2.8-1.7 5.7-2.7 8.5zm127.6 77.7c-3.8 2.8-8.6 4.2-14.6 4.2-3.2 0-6.1-.6-8.6-1.8-2.6-1.3-4.8-2.9-6.7-5.1-1.9-2.2-3.4-4.9-4.4-8-1.1-3.2-1.6-6.8-1.6-10.5 0-4.3.5-8.3 1.7-11.7 1-3.5 2.5-6.5 4.1-9 1.7-2.5 3.4-4.6 5.3-6.2 2-1.7 3.8-2.9 5.4-3.8 1.1-.6 2.1-1.2 3-1.8v1.7c0 10.3 2.7 19.7 7.8 28 4.2 6.7 9.5 12.2 15.7 16.4-2 3-4.3 5.5-7.1 7.6zM230.7 299.2c2.2 3.7 6.1 6 10.4 6h87.6c4.3 0 8.3-2.3 10.4-6 2.2-3.7 2.2-8.3 0-12l-43.8-75.8c-2.2-3.7-6.1-6-10.4-6-4.3 0-8.2 2.3-10.4 6l-43.8 75.8c-2.1 3.7-2.1 8.2 0 12zm54.2-57.8l23 39.8h-46l23-39.8z"/><path d="M145.7 456.5c31.3 0 56.8-24 59.8-54.5L475 288.7c5.2-2.2 8.2-7.7 7.2-13.2-25.2-139.6-99-207.1-156.4-239.1C263.3 1.5 207.3 0 205 0h-.2c-4.8 0-9.2 2.9-11.1 7.3l-21.4 50.9L.9 465.6c-1.9 4.5-.9 9.7 2.6 13.1 2.3 2.3 5.4 3.5 8.5 3.5 1.6 0 3.2-.3 4.7-.9l91.4-38.5c10.3 8.5 23.3 13.7 37.6 13.7zm0-24.1c-20 0-36.3-16.3-36.3-36.3 0-20 16.3-36.3 36.3-36.3 20 0 36.3 16.3 36.3 36.3s-16.3 36.3-36.3 36.3zm66.8-407.8c38.1 4 201.4 33.5 244.2 245.6l-38 16c-25.8-112-87.9-168.3-137.2-195.5-33.1-18.2-63.8-26.1-84.3-29.6l15.3-36.5zm-24 56.9c45.7 7 172.4 42.3 209.9 213.2L202.6 377c-8.1-23.9-30.4-41.3-57-41.3-33.3 0-60.3 27-60.3 60.3 0 9.9 2.6 19.1 6.9 27.4l-57.8 24.3L188.5 81.5z"/><path d="M217.6 208.7c19.6 0 35.5-15.9 35.5-35.6 0-19.6-15.9-35.6-35.5-35.6s-35.6 16-35.6 35.6c0 19.7 16 35.6 35.6 35.6zm0-47.1c6.3 0 11.5 5.2 11.5 11.5s-5.2 11.5-11.5 11.5c-6.4 0-11.6-5.2-11.6-11.5s5.2-11.5 11.6-11.5zM147.3 282.4c10.8 0 19.6-8.8 19.6-19.6s-8.8-19.6-19.6-19.6-19.6 8.8-19.6 19.6 8.8 19.6 19.6 19.6zm0-24c2.4 0 4.4 2 4.4 4.4s-2 4.4-4.4 4.4c-2.4 0-4.4-2-4.4-4.4s2-4.4 4.4-4.4z"/></g></g></switch></svg>